G04 #@! TF.GenerationSoftware,KiCad,Pcbnew,(6.0.2-0)*
G04 #@! TF.CreationDate,2022-05-25T00:55:44-04:00*
G04 #@! TF.ProjectId,SEPowerAdapter,5345506f-7765-4724-9164-61707465722e,rev?*
G04 #@! TF.SameCoordinates,Original*
G04 #@! TF.FileFunction,Legend,Bot*
G04 #@! TF.FilePolarity,Positive*
%FSLAX46Y46*%
G04 Gerber Fmt 4.6, Leading zero omitted, Abs format (unit mm)*
G04 Created by KiCad (PCBNEW (6.0.2-0)) date 2022-05-25 00:55:44*
%MOMM*%
%LPD*%
G01*
G04 APERTURE LIST*
G04 Aperture macros list*
%AMRoundRect*
0 Rectangle with rounded corners*
0 $1 Rounding radius*
0 $2 $3 $4 $5 $6 $7 $8 $9 X,Y pos of 4 corners*
0 Add a 4 corners polygon primitive as box body*
4,1,4,$2,$3,$4,$5,$6,$7,$8,$9,$2,$3,0*
0 Add four circle primitives for the rounded corners*
1,1,$1+$1,$2,$3*
1,1,$1+$1,$4,$5*
1,1,$1+$1,$6,$7*
1,1,$1+$1,$8,$9*
0 Add four rect primitives between the rounded corners*
20,1,$1+$1,$2,$3,$4,$5,0*
20,1,$1+$1,$4,$5,$6,$7,0*
20,1,$1+$1,$6,$7,$8,$9,0*
20,1,$1+$1,$8,$9,$2,$3,0*%
G04 Aperture macros list end*
%ADD10O,3.500000X3.500000*%
%ADD11R,1.905000X2.000000*%
%ADD12O,1.905000X2.000000*%
%ADD13C,1.448000*%
%ADD14C,3.200000*%
%ADD15RoundRect,0.250001X1.599999X-1.099999X1.599999X1.099999X-1.599999X1.099999X-1.599999X-1.099999X0*%
%ADD16O,3.700000X2.700000*%
%ADD17RoundRect,0.250001X-1.599999X1.099999X-1.599999X-1.099999X1.599999X-1.099999X1.599999X1.099999X0*%
%ADD18C,4.000000*%
%ADD19R,1.600000X1.600000*%
%ADD20C,1.600000*%
%ADD21R,1.700000X1.700000*%
%ADD22O,1.700000X1.700000*%
G04 APERTURE END LIST*
%LPC*%
D10*
X91567000Y-119611000D03*
D11*
X89027000Y-136271000D03*
D12*
X91567000Y-136271000D03*
X94107000Y-136271000D03*
D13*
X80327500Y-100838000D03*
D14*
X80700000Y-189000000D03*
X80700000Y-154800000D03*
D15*
X84900000Y-184500000D03*
D16*
X84900000Y-180300000D03*
X84900000Y-176100000D03*
X84900000Y-171900000D03*
X84900000Y-167700000D03*
X84900000Y-163500000D03*
X84900000Y-159300000D03*
X90400000Y-184500000D03*
X90400000Y-180300000D03*
X90400000Y-176100000D03*
X90400000Y-171900000D03*
X90400000Y-167700000D03*
X90400000Y-163500000D03*
X90400000Y-159300000D03*
D14*
X122600000Y-101900000D03*
X122600000Y-157100000D03*
D17*
X118400000Y-106400000D03*
D16*
X118400000Y-110600000D03*
X118400000Y-114800000D03*
X118400000Y-119000000D03*
X118400000Y-123200000D03*
X118400000Y-127400000D03*
X118400000Y-131600000D03*
X118400000Y-135800000D03*
X118400000Y-140000000D03*
X118400000Y-144200000D03*
X118400000Y-148400000D03*
X118400000Y-152600000D03*
X112900000Y-106400000D03*
X112900000Y-110600000D03*
X112900000Y-114800000D03*
X112900000Y-119000000D03*
X112900000Y-123200000D03*
X112900000Y-127400000D03*
X112900000Y-131600000D03*
X112900000Y-135800000D03*
X112900000Y-140000000D03*
X112900000Y-144200000D03*
X112900000Y-148400000D03*
X112900000Y-152600000D03*
D13*
X83439000Y-191135000D03*
X119570500Y-99758500D03*
D18*
X120349669Y-164265000D03*
X120349669Y-189265000D03*
D19*
X118299669Y-172450000D03*
D20*
X118299669Y-174740000D03*
X118299669Y-177030000D03*
X118299669Y-179320000D03*
X118299669Y-181610000D03*
X120279669Y-171305000D03*
X120279669Y-173595000D03*
X120279669Y-175885000D03*
X120279669Y-178175000D03*
X120279669Y-180465000D03*
X122259669Y-172450000D03*
X122259669Y-174740000D03*
X122259669Y-177030000D03*
X122259669Y-179320000D03*
X122259669Y-181610000D03*
D21*
X95186500Y-189103000D03*
D22*
X95186500Y-186563000D03*
X97726500Y-189103000D03*
X97726500Y-186563000D03*
X100266500Y-189103000D03*
X100266500Y-186563000D03*
D13*
X123952000Y-189293500D03*
M02*
