M48
; DRILL file {KiCad (6.0.2-0)} date Wednesday, May 25, 2022 at 12:55:46 AM
; FORMAT={-:-/ absolute / inch / decimal}
; #@! TF.CreationDate,2022-05-25T00:55:46-04:00
; #@! TF.GenerationSoftware,Kicad,Pcbnew,(6.0.2-0)
; #@! TF.FileFunction,MixedPlating,1,2
FMAT,2
INCH
; #@! TA.AperFunction,Plated,PTH,ViaDrill
T1C0.0118
; #@! TA.AperFunction,Plated,PTH,ViaDrill
T2C0.0157
; #@! TA.AperFunction,Plated,PTH,ViaDrill
T3C0.0197
; #@! TA.AperFunction,Plated,PTH,ComponentDrill
T4C0.0394
; #@! TA.AperFunction,Plated,PTH,ComponentDrill
T5C0.0433
; #@! TA.AperFunction,Plated,PTH,ComponentDrill
T6C0.0709
; #@! TA.AperFunction,Plated,PTH,ComponentDrill
T7C0.1260
; #@! TA.AperFunction,NonPlated,NPTH,ComponentDrill
T8C0.0454
; #@! TA.AperFunction,NonPlated,NPTH,ComponentDrill
T9C0.1260
; #@! TA.AperFunction,NonPlated,NPTH,ComponentDrill
T10C0.1378
%
G90
G05
T1
X3.635Y-5.7425
X3.7525Y-7.08
X3.91Y-5.745
X3.92Y-6.605
X3.92Y-6.9775
X3.93Y-7.2625
X3.9875Y-7.1
X4.035Y-6.9175
X4.05Y-7.1625
X4.06Y-6.605
X4.0875Y-6.05
X4.0925Y-6.7925
X4.0925Y-7.0725
X4.0925Y-7.2225
X4.0925Y-7.395
X4.2075Y-6.7425
X4.2075Y-6.7925
X4.2075Y-7.0725
X4.2075Y-7.1225
X4.2075Y-7.2225
X4.2075Y-7.2725
X4.21Y-6.87
X4.21Y-7.3475
X4.235Y-6.6175
X4.2575Y-6.9175
X4.2575Y-7.395
X4.2875Y-6.5425
X4.2875Y-7.0225
X4.3375Y-6.51
X4.345Y-6.99
X4.3975Y-6.4675
X4.4025Y-6.5425
X4.4025Y-7.0225
X4.4025Y-7.35
X4.5325Y-6.5575
X4.5325Y-6.7075
T2
X3.0925Y-3.8975
X3.0925Y-7.5525
X3.3525Y-6.1775
X3.435Y-7.475
X3.5475Y-5.51
X3.6417Y-6.0669
X3.6417Y-6.2047
X3.6417Y-6.5354
X3.655Y-7.3925
X3.6725Y-6.8725
X3.69Y-7.025
X3.7075Y-6.7275
X3.7441Y-6.0669
X3.7441Y-6.2047
X3.7441Y-6.4213
X3.7441Y-6.5354
X3.76Y-6.3325
X3.7625Y-5.51
X3.8025Y-7.5525
X3.8425Y-7.14
X3.88Y-7.5175
X3.895Y-5.94
X3.9075Y-7.215
X3.925Y-6.6625
X3.93Y-7.0825
X3.9375Y-6.91
X4.0025Y-5.9425
X4.035Y-6.5525
X4.045Y-7.0175
X4.045Y-7.495
X4.05Y-6.8575
X4.1125Y-6.1775
X4.1875Y-4.9325
X4.19Y-5.5125
X4.1925Y-6.255
X4.21Y-5.72
X4.2598Y-4.2559
X4.2598Y-4.4213
X4.2598Y-4.8346
X4.2598Y-5.0
X4.2598Y-5.4449
X4.2598Y-5.6102
X4.2598Y-5.8268
X4.26Y-5.9825
X4.27Y-7.4975
X4.3275Y-7.5525
X4.3325Y-6.0675
X4.3622Y-4.2559
X4.3622Y-4.4213
X4.3622Y-5.4449
X4.3622Y-5.6102
X4.4625Y-7.1475
X4.4775Y-7.3
X4.495Y-6.8625
X4.805Y-5.085
X4.8075Y-7.265
X4.8525Y-6.0775
X4.9125Y-3.8975
X4.9125Y-7.5525
T3
X4.5425Y-6.2025
X4.855Y-6.0079
T4
X3.7475Y-7.345
X3.7475Y-7.445
X3.8475Y-7.345
X3.8475Y-7.445
X3.9475Y-7.345
X3.9475Y-7.445
X4.6575Y-6.7894
X4.6575Y-6.8795
X4.6575Y-6.9697
X4.6575Y-7.0598
X4.6575Y-7.15
X4.7354Y-6.7443
X4.7354Y-6.8344
X4.7354Y-6.9246
X4.7354Y-7.0148
X4.7354Y-7.1049
X4.8134Y-6.7894
X4.8134Y-6.8795
X4.8134Y-6.9697
X4.8134Y-7.0598
X4.8134Y-7.15
T5
X3.505Y-5.365
X3.605Y-5.365
X3.705Y-5.365
T6
X3.3425Y-6.2717
X3.3425Y-6.437
X3.3425Y-6.6024
X3.3425Y-6.7677
X3.3425Y-6.9331
X3.3425Y-7.0984
X3.3425Y-7.2638
X3.5591Y-6.2717
X3.5591Y-6.437
X3.5591Y-6.6024
X3.5591Y-6.7677
X3.5591Y-6.9331
X3.5591Y-7.0984
X3.5591Y-7.2638
X4.4449Y-4.189
X4.4449Y-4.3543
X4.4449Y-4.5197
X4.4449Y-4.685
X4.4449Y-4.8504
X4.4449Y-5.0157
X4.4449Y-5.1811
X4.4449Y-5.3465
X4.4449Y-5.5118
X4.4449Y-5.6772
X4.4449Y-5.8425
X4.4449Y-6.0079
X4.6614Y-4.189
X4.6614Y-4.3543
X4.6614Y-4.5197
X4.6614Y-4.685
X4.6614Y-4.8504
X4.6614Y-5.0157
X4.6614Y-5.1811
X4.6614Y-5.3465
X4.6614Y-5.5118
X4.6614Y-5.6772
X4.6614Y-5.8425
X4.6614Y-6.0079
T7
X4.7382Y-6.4671
X4.7382Y-7.4514
T8
X3.1625Y-3.97
X3.285Y-7.525
X4.7075Y-3.9275
X4.88Y-7.4525
T9
X3.1772Y-6.0945
X3.1772Y-7.4409
X4.8268Y-4.0118
X4.8268Y-6.185
T10
X3.605Y-4.7091
T0
M30
