G04 #@! TF.GenerationSoftware,KiCad,Pcbnew,(6.0.2-0)*
G04 #@! TF.CreationDate,2022-04-21T23:08:48-04:00*
G04 #@! TF.ProjectId,SEPowerAdapter,5345506f-7765-4724-9164-61707465722e,rev?*
G04 #@! TF.SameCoordinates,Original*
G04 #@! TF.FileFunction,Soldermask,Top*
G04 #@! TF.FilePolarity,Negative*
%FSLAX46Y46*%
G04 Gerber Fmt 4.6, Leading zero omitted, Abs format (unit mm)*
G04 Created by KiCad (PCBNEW (6.0.2-0)) date 2022-04-21 23:08:48*
%MOMM*%
%LPD*%
G01*
G04 APERTURE LIST*
G04 Aperture macros list*
%AMRoundRect*
0 Rectangle with rounded corners*
0 $1 Rounding radius*
0 $2 $3 $4 $5 $6 $7 $8 $9 X,Y pos of 4 corners*
0 Add a 4 corners polygon primitive as box body*
4,1,4,$2,$3,$4,$5,$6,$7,$8,$9,$2,$3,0*
0 Add four circle primitives for the rounded corners*
1,1,$1+$1,$2,$3*
1,1,$1+$1,$4,$5*
1,1,$1+$1,$6,$7*
1,1,$1+$1,$8,$9*
0 Add four rect primitives between the rounded corners*
20,1,$1+$1,$2,$3,$4,$5,0*
20,1,$1+$1,$4,$5,$6,$7,0*
20,1,$1+$1,$6,$7,$8,$9,0*
20,1,$1+$1,$8,$9,$2,$3,0*%
G04 Aperture macros list end*
%ADD10C,0.150000*%
%ADD11C,3.200000*%
%ADD12RoundRect,0.250001X1.599999X-1.099999X1.599999X1.099999X-1.599999X1.099999X-1.599999X-1.099999X0*%
%ADD13O,3.700000X2.700000*%
%ADD14O,3.500000X3.500000*%
%ADD15R,1.905000X2.000000*%
%ADD16O,1.905000X2.000000*%
%ADD17RoundRect,0.312500X-0.262500X-0.437500X0.262500X-0.437500X0.262500X0.437500X-0.262500X0.437500X0*%
%ADD18RoundRect,0.262500X-0.487500X0.212500X-0.487500X-0.212500X0.487500X-0.212500X0.487500X0.212500X0*%
%ADD19C,1.448000*%
%ADD20RoundRect,0.312500X-0.437500X0.262500X-0.437500X-0.262500X0.437500X-0.262500X0.437500X0.262500X0*%
%ADD21RoundRect,0.262500X0.212500X0.487500X-0.212500X0.487500X-0.212500X-0.487500X0.212500X-0.487500X0*%
%ADD22RoundRect,0.250001X-1.599999X1.099999X-1.599999X-1.099999X1.599999X-1.099999X1.599999X1.099999X0*%
%ADD23RoundRect,0.312500X0.437500X-0.262500X0.437500X0.262500X-0.437500X0.262500X-0.437500X-0.262500X0*%
%ADD24RoundRect,0.262500X-0.212500X-0.487500X0.212500X-0.487500X0.212500X0.487500X-0.212500X0.487500X0*%
%ADD25RoundRect,0.200000X0.825000X0.150000X-0.825000X0.150000X-0.825000X-0.150000X0.825000X-0.150000X0*%
%ADD26C,4.000000*%
%ADD27R,1.600000X1.600000*%
%ADD28C,1.600000*%
%ADD29R,1.700000X1.700000*%
%ADD30O,1.700000X1.700000*%
%ADD31RoundRect,0.312500X0.262500X0.437500X-0.262500X0.437500X-0.262500X-0.437500X0.262500X-0.437500X0*%
G04 APERTURE END LIST*
D10*
X85280500Y-115506500D02*
X97853500Y-115506500D01*
X97853500Y-115506500D02*
X97853500Y-132588000D01*
X97853500Y-132588000D02*
X85280500Y-132588000D01*
X85280500Y-132588000D02*
X85280500Y-115506500D01*
G36*
X85280500Y-115506500D02*
G01*
X97853500Y-115506500D01*
X97853500Y-132588000D01*
X85280500Y-132588000D01*
X85280500Y-115506500D01*
G37*
D11*
X80700000Y-154800000D03*
X80700000Y-189000000D03*
D12*
X84900000Y-184500000D03*
D13*
X84900000Y-180300000D03*
X84900000Y-176100000D03*
X84900000Y-171900000D03*
X84900000Y-167700000D03*
X84900000Y-163500000D03*
X84900000Y-159300000D03*
X90400000Y-184500000D03*
X90400000Y-180300000D03*
X90400000Y-176100000D03*
X90400000Y-171900000D03*
X90400000Y-167700000D03*
X90400000Y-163500000D03*
X90400000Y-159300000D03*
D14*
X91567000Y-119611000D03*
D15*
X89027000Y-136271000D03*
D16*
X91567000Y-136271000D03*
X94107000Y-136271000D03*
D17*
X105410000Y-175704500D03*
X107110000Y-175704500D03*
D18*
X92329000Y-189103000D03*
X92329000Y-191003000D03*
D19*
X80327500Y-100838000D03*
D18*
X103124000Y-168719500D03*
X103124000Y-170619500D03*
D20*
X109500000Y-146300000D03*
X109500000Y-148000000D03*
D21*
X110802500Y-164274500D03*
X108902500Y-164274500D03*
D20*
X109500000Y-125300000D03*
X109500000Y-127000000D03*
D17*
X105410000Y-187833000D03*
X107110000Y-187833000D03*
D11*
X122600000Y-101900000D03*
X122600000Y-157100000D03*
D22*
X118400000Y-106400000D03*
D13*
X118400000Y-110600000D03*
X118400000Y-114800000D03*
X118400000Y-119000000D03*
X118400000Y-123200000D03*
X118400000Y-127400000D03*
X118400000Y-131600000D03*
X118400000Y-135800000D03*
X118400000Y-140000000D03*
X118400000Y-144200000D03*
X118400000Y-148400000D03*
X118400000Y-152600000D03*
X112900000Y-106400000D03*
X112900000Y-110600000D03*
X112900000Y-114800000D03*
X112900000Y-119000000D03*
X112900000Y-123200000D03*
X112900000Y-127400000D03*
X112900000Y-131600000D03*
X112900000Y-135800000D03*
X112900000Y-140000000D03*
X112900000Y-144200000D03*
X112900000Y-148400000D03*
X112900000Y-152600000D03*
D23*
X93800000Y-159300000D03*
X93800000Y-157600000D03*
D20*
X93800000Y-154099999D03*
X93800000Y-155799999D03*
D23*
X109500000Y-144200000D03*
X109500000Y-142500000D03*
X93800000Y-163100000D03*
X93800000Y-161400000D03*
D19*
X83439000Y-191135000D03*
D24*
X105410000Y-164274500D03*
X107310000Y-164274500D03*
X112397500Y-179641500D03*
X114297500Y-179641500D03*
D18*
X112966500Y-167449500D03*
X112966500Y-169349500D03*
D23*
X109500000Y-112300000D03*
X109500000Y-110600000D03*
D19*
X119570500Y-99758500D03*
D17*
X89867000Y-138684000D03*
X91567000Y-138684000D03*
D18*
X115125500Y-171264500D03*
X115125500Y-173164500D03*
D25*
X110361500Y-185991500D03*
X110361500Y-184721500D03*
X110361500Y-183451500D03*
X110361500Y-182181500D03*
X110361500Y-180911500D03*
X110361500Y-179641500D03*
X110361500Y-178371500D03*
X105411500Y-178371500D03*
X105411500Y-179641500D03*
X105411500Y-180911500D03*
X105411500Y-182181500D03*
X105411500Y-183451500D03*
X105411500Y-184721500D03*
X105411500Y-185991500D03*
D26*
X120349669Y-164265000D03*
X120349669Y-189265000D03*
D27*
X118299669Y-172450000D03*
D28*
X118299669Y-174740000D03*
X118299669Y-177030000D03*
X118299669Y-179320000D03*
X118299669Y-181610000D03*
X120279669Y-171305000D03*
X120279669Y-173595000D03*
X120279669Y-175885000D03*
X120279669Y-178175000D03*
X120279669Y-180465000D03*
X122259669Y-172450000D03*
X122259669Y-174740000D03*
X122259669Y-177030000D03*
X122259669Y-179320000D03*
X122259669Y-181610000D03*
D18*
X115125500Y-167454500D03*
X115125500Y-169354500D03*
D29*
X95186500Y-189103000D03*
D30*
X95186500Y-186563000D03*
X97726500Y-189103000D03*
X97726500Y-186563000D03*
X100266500Y-189103000D03*
X100266500Y-186563000D03*
D18*
X112966500Y-171259500D03*
X112966500Y-173159500D03*
D19*
X123952000Y-189293500D03*
D24*
X112397500Y-183451500D03*
X114297500Y-183451500D03*
D21*
X110993000Y-187833000D03*
X109093000Y-187833000D03*
D23*
X93800000Y-167700000D03*
X93800000Y-166000000D03*
D31*
X95807000Y-138684000D03*
X94107000Y-138684000D03*
D20*
X109500000Y-106400000D03*
X109500000Y-108100000D03*
X109500000Y-121100000D03*
X109500000Y-122800000D03*
D23*
X109500000Y-140000000D03*
X109500000Y-138300000D03*
D20*
X109500000Y-150500000D03*
X109500000Y-152200000D03*
D25*
X110361500Y-173799500D03*
X110361500Y-172529500D03*
X110361500Y-171259500D03*
X110361500Y-169989500D03*
X110361500Y-168719500D03*
X110361500Y-167449500D03*
X110361500Y-166179500D03*
X105411500Y-166179500D03*
X105411500Y-167449500D03*
X105411500Y-168719500D03*
X105411500Y-169989500D03*
X105411500Y-171259500D03*
X105411500Y-172529500D03*
X105411500Y-173799500D03*
M02*
