M48
; DRILL file {KiCad (6.0.1-0)} date Thursday, February 03, 2022 at 05:16:24 AM
; FORMAT={-:-/ absolute / inch / decimal}
; #@! TF.CreationDate,2022-02-03T05:16:24-05:00
; #@! TF.GenerationSoftware,Kicad,Pcbnew,(6.0.1-0)
; #@! TF.FileFunction,MixedPlating,1,4
FMAT,2
INCH
; #@! TA.AperFunction,Plated,PTH,ViaDrill
T1C0.0079
; #@! TA.AperFunction,Plated,PTH,ViaDrill
T2C0.0118
; #@! TA.AperFunction,Plated,PTH,ViaDrill
T3C0.0157
; #@! TA.AperFunction,Plated,PTH,ViaDrill
T4C0.0197
; #@! TA.AperFunction,Plated,PTH,ComponentDrill
T5C0.0197
; #@! TA.AperFunction,Plated,PTH,ViaDrill
T6C0.0250
; #@! TA.AperFunction,Plated,PTH,ComponentDrill
T7C0.0276
; #@! TA.AperFunction,Plated,PTH,ViaDrill
T8C0.0300
; #@! TA.AperFunction,Plated,PTH,ComponentDrill
T9C0.0394
; #@! TA.AperFunction,Plated,PTH,ComponentDrill
T10C0.0433
; #@! TA.AperFunction,NonPlated,NPTH,ComponentDrill
T11C0.0390
; #@! TA.AperFunction,NonPlated,NPTH,ComponentDrill
T12C0.0935
; #@! TA.AperFunction,NonPlated,NPTH,ComponentDrill
T13C0.1122
%
G90
G05
T1
X4.0975Y-1.725
X4.0975Y-1.95
X4.0975Y-2.15
X4.0975Y-2.35
X4.0975Y-2.55
X4.0975Y-2.75
X4.0975Y-2.95
X4.0975Y-3.15
X4.0975Y-3.35
X4.0975Y-3.55
X4.0975Y-3.75
X4.0975Y-3.95
X4.0975Y-4.15
X4.0975Y-4.35
X4.0975Y-4.55
X4.0975Y-4.75
X4.0975Y-4.95
X4.12Y-2.01
X4.1575Y-4.5669
X4.1831Y-4.3268
X4.195Y-4.42
X4.195Y-4.54
X4.2Y-4.745
X4.215Y-1.5225
X4.215Y-5.0675
X4.2224Y-4.1161
X4.2264Y-4.315
X4.25Y-4.745
X4.255Y-4.3976
X4.2697Y-4.3031
X4.2815Y-3.8642
X4.2815Y-4.0059
X4.2815Y-4.25
X4.2894Y-3.8169
X4.29Y-4.5125
X4.3Y-1.85
X4.3Y-4.745
X4.3091Y-4.2874
X4.313Y-2.2382
X4.315Y-3.9685
X4.315Y-1.91
X4.3268Y-4.1535
X4.3484Y-4.0059
X4.3484Y-4.2756
X4.3484Y-4.4134
X4.3484Y-4.5315
X4.375Y-2.2
X4.3937Y-4.5531
X4.4114Y-4.6535
X4.415Y-1.5225
X4.415Y-5.0675
X4.43Y-1.97
X4.437Y-4.2165
X4.437Y-4.2756
X4.437Y-4.4134
X4.437Y-4.5315
X4.437Y-4.5965
X4.4409Y-4.7028
X4.4488Y-4.374
X4.4528Y-4.6634
X4.465Y-2.08
X4.4665Y-3.8858
X4.4724Y-4.2559
X4.4724Y-4.5118
X4.4941Y-4.7047
X4.498Y-3.9488
X4.498Y-4.5531
X4.505Y-2.045
X4.5059Y-3.8858
X4.5059Y-4.748
X4.5079Y-4.2362
X4.5177Y-4.0374
X4.5177Y-4.5177
X4.5374Y-4.5531
X4.5571Y-4.0728
X4.5571Y-4.5177
X4.565Y-4.85
X4.57Y-4.7375
X4.5768Y-3.9488
X4.5768Y-4.0374
X4.5768Y-4.5531
X4.58Y-1.735
X4.58Y-2.05
X4.5945Y-4.6752
X4.5965Y-4.5177
X4.6004Y-3.8996
X4.615Y-1.5225
X4.615Y-5.0675
X4.6161Y-4.5531
X4.6161Y-4.6417
X4.625Y-4.85
X4.6339Y-4.7087
X4.6358Y-4.0728
X4.6358Y-4.5177
X4.6417Y-3.8819
X4.6457Y-3.9488
X4.6555Y-4.0374
X4.6555Y-4.5531
X4.6673Y-4.4941
X4.6969Y-4.7126
X4.7224Y-4.4941
X4.7244Y-4.685
X4.7343Y-4.5531
X4.7421Y-3.7933
X4.7441Y-4.6496
X4.7535Y-3.8378
X4.7539Y-4.5177
X4.7638Y-2.2776
X4.7638Y-2.3248
X4.7736Y-3.872
X4.7736Y-4.5531
X4.7933Y-3.9488
X4.7933Y-4.5177
X4.7972Y-2.2402
X4.7972Y-2.3622
X4.8031Y-4.6496
X4.813Y-3.9134
X4.813Y-4.5531
X4.815Y-1.5225
X4.815Y-5.0675
X4.8307Y-2.2776
X4.8307Y-2.3248
X4.8327Y-3.9488
X4.8327Y-4.0374
X4.8327Y-4.5177
X4.8524Y-4.0728
X4.8524Y-4.5531
X4.872Y-4.0374
X4.872Y-4.5177
X4.8917Y-4.0728
X4.8937Y-4.4272
X4.8937Y-4.4803
X4.8976Y-3.9134
X4.9173Y-3.6024
X4.9173Y-4.1575
X4.9173Y-4.1969
X4.9173Y-4.2362
X4.9173Y-4.2756
X4.9173Y-4.315
X4.9173Y-4.3543
X4.9173Y-4.3937
X4.9173Y-4.5118
X4.9311Y-4.5531
X4.9311Y-4.6417
X4.935Y-4.7087
X4.9528Y-4.0787
X4.9528Y-4.1378
X4.9528Y-4.1772
X4.9528Y-4.2165
X4.9528Y-4.2559
X4.9528Y-4.2953
X4.9528Y-4.3346
X4.9528Y-4.374
X4.9528Y-4.4134
X4.9528Y-4.4921
X4.9665Y-4.5906
X4.9744Y-4.6713
X4.9843Y-3.8819
X4.9843Y-3.9488
X5.015Y-1.5225
X5.015Y-5.0675
X5.0217Y-3.9154
X5.0236Y-2.7972
X5.0413Y-4.1378
X5.0413Y-4.502
X5.0453Y-4.0787
X5.061Y-4.6181
X5.0748Y-4.5433
X5.075Y-2.24
X5.075Y-2.34
X5.0787Y-3.6024
X5.08Y-2.82
X5.08Y-3.18
X5.0807Y-4.1181
X5.1024Y-4.6319
X5.1102Y-4.5059
X5.125Y-2.24
X5.125Y-2.34
X5.125Y-2.9
X5.125Y-3.0
X5.125Y-3.05
X5.125Y-3.1
X5.15Y-2.825
X5.15Y-3.175
X5.175Y-2.24
X5.175Y-2.34
X5.175Y-3.27
X5.185Y-2.6525
X5.195Y-2.6925
X5.2Y-2.7325
X5.2Y-2.825
X5.2Y-3.175
X5.205Y-2.535
X5.205Y-2.985
X5.215Y-1.5225
X5.215Y-5.0675
X5.225Y-2.24
X5.225Y-2.34
X5.225Y-3.27
X5.25Y-2.825
X5.25Y-3.175
X5.2677Y-1.937
X5.2717Y-4.435
X5.275Y-2.24
X5.275Y-2.34
X5.275Y-3.27
X5.3Y-2.7325
X5.3Y-2.825
X5.3Y-3.175
X5.325Y-2.24
X5.325Y-2.34
X5.325Y-3.27
X5.335Y-3.665
X5.35Y-2.6925
X5.35Y-2.7325
X5.35Y-2.825
X5.35Y-3.175
X5.375Y-2.24
X5.375Y-3.27
X5.38Y-2.34
X5.4Y-2.4875
X5.4Y-2.6675
X5.4Y-2.7325
X5.4Y-2.825
X5.4Y-3.175
X5.41Y-4.725
X5.415Y-1.5225
X5.415Y-5.0675
X5.425Y-2.34
X5.4275Y-1.9925
X5.43Y-2.3
X5.445Y-2.4925
X5.45Y-2.6425
X5.45Y-2.7325
X5.45Y-2.825
X5.45Y-3.175
X5.45Y-3.55
X5.455Y-3.765
X5.455Y-3.815
X5.47Y-4.725
X5.475Y-2.965
X5.5Y-2.6175
X5.5Y-2.7325
X5.5Y-2.825
X5.5Y-3.175
X5.5Y-3.455
X5.5Y-3.55
X5.5Y-4.415
X5.53Y-4.725
X5.5425Y-2.97
X5.55Y-3.47
X5.55Y-3.55
X5.57Y-2.61
X5.595Y-4.4
X5.6Y-3.51
X5.6Y-3.55
X5.6Y-3.7
X5.605Y-4.0475
X5.605Y-4.45
X5.6125Y-3.2125
X5.615Y-1.5225
X5.615Y-5.0675
X5.624Y-4.725
X5.64Y-2.7825
X5.65Y-3.7
X5.655Y-4.0475
X5.66Y-4.46
X5.665Y-2.975
X5.675Y-3.51
X5.675Y-3.55
X5.7Y-3.7
X5.7Y-4.47
X5.705Y-4.0475
X5.7125Y-3.04
X5.725Y-3.205
X5.725Y-3.4725
X5.725Y-3.55
X5.725Y-4.58
X5.735Y-2.9225
X5.75Y-3.7
X5.75Y-4.47
X5.755Y-4.0475
X5.775Y-3.205
X5.775Y-3.4225
X5.775Y-3.55
X5.775Y-4.58
X5.8Y-3.7
X5.8Y-4.47
X5.805Y-4.0475
X5.811Y-4.725
X5.815Y-1.5225
X5.815Y-5.0675
X5.825Y-3.205
X5.825Y-3.3725
X5.825Y-3.55
X5.825Y-4.58
X5.85Y-3.7
X5.85Y-4.47
X5.855Y-4.0525
X5.875Y-3.205
X5.875Y-3.3225
X5.875Y-3.55
X5.875Y-4.58
X5.9Y-3.7
X5.9Y-4.47
X5.905Y-4.0825
X5.925Y-3.205
X5.925Y-3.295
X5.925Y-3.55
X5.925Y-4.58
X5.95Y-3.7
X5.95Y-4.47
X5.955Y-4.085
X5.975Y-3.2325
X5.975Y-3.295
X5.975Y-3.55
X5.975Y-4.58
X5.985Y-2.922
X5.9975Y-3.1775
X6.0Y-3.7
X6.0Y-4.47
X6.005Y-4.085
X6.0137Y-2.8962
X6.015Y-1.5225
X6.015Y-5.0675
X6.025Y-3.41
X6.025Y-3.52
X6.025Y-4.58
X6.035Y-3.34
X6.035Y-3.48
X6.05Y-3.7
X6.05Y-4.47
X6.055Y-4.085
X6.0575Y-3.3775
X6.07Y-3.445
X6.075Y-2.24
X6.075Y-2.34
X6.075Y-4.58
X6.08Y-2.82
X6.08Y-3.18
X6.085Y-3.32
X6.1Y-3.7
X6.1Y-4.0425
X6.1Y-4.47
X6.125Y-2.24
X6.125Y-2.34
X6.125Y-2.9925
X6.125Y-4.58
X6.1275Y-3.0575
X6.1275Y-3.0975
X6.15Y-2.825
X6.15Y-3.175
X6.15Y-3.7
X6.15Y-3.9925
X6.15Y-4.47
X6.175Y-2.24
X6.175Y-2.34
X6.175Y-4.58
X6.2Y-2.825
X6.2Y-3.175
X6.2Y-3.7
X6.2Y-3.9425
X6.2Y-4.47
X6.215Y-1.5225
X6.215Y-5.0675
X6.225Y-2.24
X6.225Y-2.34
X6.225Y-4.58
X6.25Y-2.825
X6.25Y-3.175
X6.255Y-3.915
X6.255Y-3.965
X6.255Y-4.015
X6.255Y-4.115
X6.255Y-4.165
X6.255Y-4.215
X6.255Y-4.265
X6.255Y-4.315
X6.255Y-4.365
X6.255Y-4.415
X6.2575Y-2.98
X6.2575Y-3.52
X6.275Y-2.24
X6.275Y-2.34
X6.28Y-4.525
X6.3Y-2.825
X6.3Y-3.175
X6.31Y-4.495
X6.325Y-2.24
X6.325Y-2.34
X6.35Y-2.825
X6.35Y-3.175
X6.355Y-2.7325
X6.365Y-3.69
X6.365Y-3.74
X6.365Y-3.94
X6.365Y-3.99
X6.365Y-4.14
X6.365Y-4.19
X6.365Y-4.24
X6.365Y-4.29
X6.365Y-4.34
X6.365Y-4.39
X6.3675Y-4.435
X6.375Y-2.09
X6.375Y-2.34
X6.385Y-2.8625
X6.3875Y-3.6225
X6.3996Y-4.874
X6.4Y-2.7325
X6.4Y-3.175
X6.4025Y-2.825
X6.415Y-1.5225
X6.415Y-5.0675
X6.42Y-3.9875
X6.4225Y-4.145
X6.425Y-2.09
X6.425Y-2.28
X6.435Y-2.87
X6.45Y-2.6875
X6.45Y-2.7325
X6.45Y-2.825
X6.45Y-3.175
X6.4525Y-4.195
X6.465Y-4.265
X6.475Y-2.49
X6.48Y-2.86
X6.5Y-2.525
X6.5Y-2.6575
X6.5Y-2.7325
X6.5Y-2.825
X6.5Y-3.175
X6.51Y-4.275
X6.5236Y-1.6831
X6.525Y-2.24
X6.525Y-2.34
X6.5275Y-3.005
X6.53Y-2.855
X6.5551Y-3.8169
X6.5575Y-4.37
X6.5675Y-4.7275
X6.575Y-2.24
X6.575Y-2.34
X6.5825Y-4.5077
X6.5945Y-3.8681
X6.6Y-2.8
X6.6Y-3.2225
X6.615Y-1.5225
X6.615Y-5.0675
X6.625Y-2.24
X6.625Y-2.34
X6.64Y-3.2025
X6.66Y-4.935
X6.685Y-4.1358
X6.6929Y-1.7008
X6.6949Y-1.9055
X6.725Y-3.2325
X6.725Y-4.935
X6.7382Y-1.9291
X6.755Y-3.2575
X6.7697Y-4.4941
X6.7815Y-1.8287
X6.7815Y-1.9055
X6.785Y-3.2825
X6.79Y-4.935
X6.815Y-1.5225
X6.815Y-3.3075
X6.815Y-5.0675
X6.8268Y-2.7224
X6.8268Y-2.7736
X6.8268Y-2.8248
X6.8268Y-2.876
X6.8287Y-1.6161
X6.8445Y-3.8681
X6.8583Y-2.748
X6.8583Y-2.7992
X6.8583Y-2.8504
X6.8583Y-2.9016
X6.872Y-3.9764
X6.8799Y-1.6161
X6.9114Y-2.6969
X6.9114Y-2.9272
X6.9114Y-3.0551
X6.9114Y-3.2854
X6.9114Y-4.002
X6.9114Y-4.3602
X6.9114Y-4.7185
X6.9173Y-1.5827
X6.9173Y-1.6496
X6.9272Y-1.7264
X6.9272Y-1.7776
X6.9272Y-1.8287
X6.9547Y-2.6732
X6.9547Y-2.9508
X6.9547Y-3.0315
X6.9547Y-3.3091
X6.9547Y-4.0256
X6.9547Y-4.3839
X6.9547Y-4.7421
X6.9646Y-1.5827
X6.9705Y-1.6516
X6.998Y-2.7224
X6.998Y-2.7736
X6.998Y-2.8248
X6.998Y-2.876
X6.998Y-2.9272
X6.998Y-3.0807
X6.998Y-3.1319
X6.998Y-3.1831
X6.998Y-3.2343
X6.998Y-3.2854
X6.998Y-4.002
X6.998Y-4.3602
X6.998Y-4.7185
X7.002Y-1.6161
X7.0138Y-1.6752
X7.0138Y-1.9055
X7.015Y-1.5225
X7.015Y-5.0675
X7.0295Y-2.748
X7.0295Y-2.7992
X7.0295Y-2.8504
X7.0295Y-2.9016
X7.0295Y-3.1063
X7.0295Y-3.1575
X7.0295Y-3.2087
X7.0295Y-3.2598
X7.03Y-1.765
X7.045Y-2.1
X7.0886Y-2.4331
X7.0975Y-2.1275
X7.105Y-2.2
X7.1339Y-2.6063
X7.1339Y-2.6732
X7.1339Y-3.0315
X7.1339Y-3.6811
X7.1339Y-4.0394
X7.1339Y-4.3976
X7.1398Y-4.7126
X7.1417Y-3.2933
X7.1437Y-3.7717
X7.1437Y-4.1299
X7.1437Y-4.4882
X7.1496Y-2.9606
X7.15Y-2.1
X7.15Y-2.2
X7.155Y-2.1275
X7.1634Y-1.6206
X7.1634Y-1.7013
X7.1811Y-2.6063
X7.1811Y-3.6811
X7.1811Y-4.0394
X7.1811Y-4.3976
X7.187Y-2.6732
X7.187Y-3.0315
X7.187Y-3.748
X7.187Y-4.1063
X7.187Y-4.4646
X7.189Y-2.9646
X7.1909Y-2.3583
X7.215Y-1.521
X7.215Y-5.0675
X7.2303Y-2.6969
X7.2303Y-3.0551
X7.2303Y-3.7717
X7.2303Y-4.1299
X7.2303Y-4.4882
X7.24Y-1.95
X7.24Y-2.05
X7.24Y-2.1
X7.2461Y-2.5689
X7.2461Y-2.9272
X7.2461Y-3.2854
X7.2461Y-3.4134
X7.2461Y-3.6437
X7.2461Y-4.002
X7.2461Y-4.3602
X7.2461Y-4.7185
X7.2598Y-3.0039
X7.2657Y-1.7013
X7.2736Y-2.6476
X7.2894Y-2.5925
X7.2894Y-2.9508
X7.2894Y-3.3091
X7.2894Y-3.6673
X7.2894Y-4.0256
X7.2894Y-4.3839
X7.2894Y-4.7421
X7.33Y-2.2
X7.3327Y-2.5689
X7.3327Y-2.9272
X7.3327Y-3.2854
X7.3327Y-3.6437
X7.3327Y-4.002
X7.3327Y-4.3602
X7.3327Y-4.7185
X7.345Y-1.95
X7.345Y-2.1
X7.35Y-1.8975
X7.3524Y-4.3957
X7.385Y-1.8575
X7.3858Y-1.6245
X7.415Y-1.5225
X7.415Y-5.0675
X7.4193Y-1.5886
X7.42Y-1.8975
X7.4528Y-1.626
X7.4587Y-4.002
X7.4606Y-2.122
X7.4685Y-2.248
X7.4685Y-2.6063
X7.4685Y-2.9646
X7.4685Y-3.3228
X7.4685Y-3.6811
X7.4685Y-4.0394
X7.4685Y-4.3976
X7.4705Y-4.7106
X7.4783Y-2.3386
X7.4783Y-2.3898
X7.4783Y-2.4409
X7.4783Y-2.4921
X7.4783Y-2.5433
X7.4783Y-2.6969
X7.4783Y-2.9272
X7.4783Y-3.0551
X7.4783Y-3.2854
X7.4783Y-3.4134
X7.4783Y-3.4646
X7.4783Y-3.5157
X7.4783Y-3.5669
X7.4783Y-3.6181
X7.4783Y-3.7717
X7.4783Y-4.1299
X7.4783Y-4.4882
X7.498Y-2.0886
X7.498Y-2.1555
X7.5157Y-2.248
X7.5157Y-2.6063
X7.5157Y-2.9646
X7.5157Y-3.3228
X7.5157Y-3.6811
X7.5157Y-4.0394
X7.5157Y-4.3976
X7.5217Y-2.315
X7.5217Y-2.6732
X7.5217Y-3.0315
X7.5217Y-3.3898
X7.5217Y-3.748
X7.5217Y-4.1063
X7.5217Y-4.4646
X7.565Y-2.3386
X7.565Y-2.4154
X7.565Y-2.4665
X7.565Y-2.5177
X7.565Y-2.5689
X7.565Y-2.7224
X7.565Y-2.7736
X7.565Y-2.8248
X7.565Y-2.876
X7.565Y-3.0807
X7.565Y-3.1319
X7.565Y-3.1831
X7.565Y-3.2343
X7.565Y-3.4134
X7.565Y-3.4902
X7.565Y-3.5413
X7.565Y-3.5906
X7.565Y-3.6437
X7.565Y-4.1299
X7.565Y-4.4882
X7.5807Y-4.687
X7.5965Y-2.3642
X7.5965Y-2.748
X7.5965Y-2.7992
X7.5965Y-2.8504
X7.5965Y-2.9016
X7.5965Y-3.1063
X7.5965Y-3.1575
X7.5965Y-3.2087
X7.5965Y-3.2598
X7.5965Y-3.439
X7.6043Y-2.1417
X7.6043Y-2.2717
X7.6122Y-3.9744
X7.615Y-1.5225
X7.615Y-5.0675
X7.6181Y-4.3622
X7.6437Y-2.9193
X7.6476Y-4.5768
X7.6673Y-2.2717
X7.6713Y-2.7795
X7.685Y-3.563
X7.6875Y-5.175
X7.6875Y-5.375
X7.6909Y-1.5669
X7.6909Y-1.6142
X7.7146Y-4.2343
X7.7146Y-4.5768
X7.7224Y-4.8307
X7.74Y-4.0275
X7.7475Y-2.83
X7.748Y-2.6791
X7.75Y-4.5079
X7.7525Y-4.1075
X7.7579Y-1.5669
X7.7579Y-1.6142
X7.76Y-2.92
X7.7697Y-4.3031
X7.7717Y-2.9803
X7.7776Y-2.5157
X7.7894Y-3.0807
X7.7975Y-3.18
X7.805Y-5.4775
X7.81Y-3.2675
X7.815Y-1.5225
X7.8169Y-2.4547
X7.8189Y-2.5807
X7.8189Y-4.7087
X7.8225Y-3.3525
X7.8228Y-4.248
X7.8287Y-2.5157
X7.83Y-3.7025
X7.8346Y-4.3386
X7.835Y-3.42
X7.8386Y-3.7697
X8.0075Y-5.4775
X8.015Y-1.5225
X8.21Y-5.4775
X8.215Y-1.5225
X8.3275Y-1.725
X8.3275Y-1.95
X8.3275Y-2.15
X8.3275Y-2.35
X8.3275Y-2.55
X8.3275Y-2.75
X8.3275Y-2.95
X8.3275Y-3.15
X8.3275Y-3.35
X8.3275Y-3.55
X8.3275Y-3.75
X8.3275Y-3.95
X8.3275Y-4.15
X8.3275Y-4.35
X8.3275Y-4.55
X8.3275Y-4.75
X8.3275Y-4.95
X8.3275Y-5.15
X8.3275Y-5.375
T2
X4.835Y-2.9575
X4.835Y-3.0175
X4.88Y-2.9125
X4.88Y-3.055
X4.9173Y-3.689
X4.925Y-2.95
X4.925Y-3.0175
X4.9311Y-3.5197
X4.9567Y-3.7323
X4.9705Y-3.5551
X4.9724Y-3.4843
X4.995Y-2.165
X4.995Y-2.415
X5.0157Y-3.4843
X5.0236Y-3.5571
X5.025Y-2.0875
X5.025Y-2.2425
X5.025Y-2.3375
X5.025Y-2.4925
X5.035Y-2.95
X5.0571Y-3.5197
X5.0787Y-3.689
X5.1181Y-3.7323
X5.1275Y-2.95
X5.1319Y-3.5551
X5.1339Y-3.4843
X5.135Y-3.8725
X5.135Y-3.925
X5.1772Y-3.4843
X5.18Y-3.8275
X5.18Y-3.97
X5.185Y-3.5571
X5.2185Y-3.5197
X5.2244Y-3.6024
X5.225Y-3.925
X5.335Y-3.965
X5.335Y-4.015
X5.445Y-3.965
X5.445Y-4.015
X5.5725Y-3.05
X5.665Y-3.05
X5.675Y-2.0875
X5.675Y-2.2425
X5.675Y-2.3375
X5.675Y-2.4925
X5.705Y-2.165
X5.705Y-2.415
X5.73Y-2.225
X5.775Y-2.1275
X5.775Y-2.27
X5.82Y-2.1725
X5.82Y-2.225
X5.835Y-2.9575
X5.835Y-3.01
X5.88Y-2.1725
X5.88Y-2.225
X5.925Y-2.1275
X5.925Y-2.27
X5.925Y-2.95
X5.925Y-3.01
X5.97Y-2.225
X5.995Y-2.165
X5.995Y-2.415
X6.025Y-2.0875
X6.025Y-2.2425
X6.025Y-2.3375
X6.025Y-2.4925
X6.035Y-2.95
X6.1275Y-2.95
X6.255Y-3.815
X6.255Y-3.865
X6.255Y-4.065
X6.365Y-3.815
X6.365Y-3.865
X6.475Y-4.125
X6.52Y-4.0275
X6.52Y-4.17
X6.565Y-4.0725
X6.565Y-4.125
X6.5725Y-3.05
X6.665Y-3.05
X6.675Y-2.0875
X6.675Y-2.2425
X6.675Y-2.3375
X6.675Y-2.4925
X6.705Y-2.165
X6.705Y-2.415
X6.73Y-2.225
X6.775Y-2.1275
X6.775Y-2.27
X6.815Y-3.563
X6.815Y-3.6142
X6.82Y-2.1725
X6.82Y-2.225
X6.8602Y-3.5177
X6.8602Y-3.6594
X6.9055Y-3.563
X6.9055Y-3.6142
X7.0945Y-3.7146
X7.0945Y-4.0728
X7.0945Y-4.4311
X7.2205Y-2.6398
X7.2205Y-2.998
X7.2205Y-3.7146
X7.2205Y-4.0728
X7.2205Y-4.4311
X7.4291Y-2.998
X7.4291Y-3.7146
X7.4291Y-4.0728
X7.4291Y-4.4311
X7.5551Y-2.6398
X7.5551Y-2.998
X7.5551Y-3.3563
X7.5551Y-3.7146
X7.5551Y-4.0728
X7.5551Y-4.4311
X7.745Y-3.84
X7.79Y-3.795
X7.835Y-3.84
T3
X4.3975Y-2.8275
X4.4016Y-3.689
X4.4488Y-3.6476
X4.485Y-2.91
X4.485Y-3.005
X4.4925Y-2.8275
X4.535Y-2.8625
X4.535Y-2.9575
X4.6024Y-3.6476
X4.6325Y-2.91
X4.6496Y-3.689
X4.8775Y-2.175
X4.8775Y-2.2225
X5.2275Y-3.865
X5.3325Y-3.865
X5.45Y-3.865
X6.3675Y-4.065
X6.4725Y-4.065
X7.6475Y-1.7325
X7.6475Y-2.0575
X7.695Y-1.6825
X7.695Y-2.1075
X7.7425Y-1.7325
X7.7425Y-2.0575
X7.79Y-2.1075
X7.8375Y-2.0575
T4
X4.3858Y-3.1358
X4.435Y-3.0846
X4.435Y-3.187
X4.4941Y-3.0846
X4.4941Y-3.187
X4.5433Y-3.1358
X4.8701Y-3.3602
T6
X4.6969Y-2.7285
T7
X7.1191Y-1.6619
X7.31Y-1.6619
T8
X4.435Y-3.25
X4.435Y-3.3996
X4.4646Y-2.7047
X4.5295Y-2.7677
X4.5689Y-2.6004
X4.5926Y-2.8327
X4.6161Y-3.25
X4.6161Y-3.3996
X4.6339Y-2.6634
X4.6772Y-2.4606
X4.7047Y-2.5925
X4.752Y-2.4272
X4.8091Y-2.4882
X4.8366Y-2.6201
X4.8701Y-2.5453
T9
X7.9Y-2.0
X7.9Y-2.1
X7.9Y-2.2
X7.9Y-2.3
X7.9Y-2.4
X7.9Y-2.5
X7.9Y-2.6
X7.9Y-2.7
X7.9Y-2.8
X7.9Y-2.9
X7.9Y-3.0
X7.9Y-3.1
X7.9Y-3.2
X7.9Y-3.3
X7.9Y-3.4
X7.9Y-3.5
X7.9Y-3.6
X7.9Y-3.7
X7.9Y-3.8
X7.9Y-3.9
X7.9Y-4.0
X7.9Y-4.1
X7.9Y-4.2
X7.9Y-4.3
X7.9Y-4.4
X7.9Y-4.5
X7.9Y-4.6
X7.9Y-4.7
X7.9Y-4.8
X7.9Y-4.9
X7.9Y-5.0
X7.9Y-5.1
X8.0Y-2.0
X8.0Y-2.1
X8.0Y-2.2
X8.0Y-2.3
X8.0Y-2.4
X8.0Y-2.5
X8.0Y-2.6
X8.0Y-2.7
X8.0Y-2.8
X8.0Y-2.9
X8.0Y-3.0
X8.0Y-3.1
X8.0Y-3.2
X8.0Y-3.3
X8.0Y-3.4
X8.0Y-3.5
X8.0Y-3.6
X8.0Y-3.7
X8.0Y-3.8
X8.0Y-3.9
X8.0Y-4.0
X8.0Y-4.1
X8.0Y-4.2
X8.0Y-4.3
X8.0Y-4.4
X8.0Y-4.5
X8.0Y-4.6
X8.0Y-4.7
X8.0Y-4.8
X8.0Y-4.9
X8.0Y-5.0
X8.0Y-5.1
X8.1Y-2.0
X8.1Y-2.1
X8.1Y-2.2
X8.1Y-2.3
X8.1Y-2.4
X8.1Y-2.5
X8.1Y-2.6
X8.1Y-2.7
X8.1Y-2.8
X8.1Y-2.9
X8.1Y-3.0
X8.1Y-3.1
X8.1Y-3.2
X8.1Y-3.3
X8.1Y-3.4
X8.1Y-3.5
X8.1Y-3.6
X8.1Y-3.7
X8.1Y-3.8
X8.1Y-3.9
X8.1Y-4.0
X8.1Y-4.1
X8.1Y-4.2
X8.1Y-4.3
X8.1Y-4.4
X8.1Y-4.5
X8.1Y-4.6
X8.1Y-4.7
X8.1Y-4.8
X8.1Y-4.9
X8.1Y-5.0
X8.1Y-5.1
T10
X4.145Y-1.67
X4.475Y-5.02
X7.735Y-5.43
X8.28Y-1.57
X8.28Y-5.43
T11
X4.317Y-1.9977
X4.5008Y-1.7573
X4.5574Y-1.8138
T12
X4.2463Y-1.927
X4.3877Y-2.0684
X4.4054Y-1.7679
X4.5468Y-1.9093
T13
X8.0118Y-1.7783
X8.0118Y-5.3217
T5
G00X7.0728Y-1.5733
M15
G01X7.0728Y-1.5418
M16
G05
G00X7.3563Y-1.5418
M15
G01X7.3563Y-1.5733
M16
G05
T0
M30
