G04 #@! TF.GenerationSoftware,KiCad,Pcbnew,(6.0.1-0)*
G04 #@! TF.CreationDate,2022-02-03T05:16:20-05:00*
G04 #@! TF.ProjectId,Warp-SE,57617270-2d53-4452-9e6b-696361645f70,rev?*
G04 #@! TF.SameCoordinates,Original*
G04 #@! TF.FileFunction,Soldermask,Bot*
G04 #@! TF.FilePolarity,Negative*
%FSLAX46Y46*%
G04 Gerber Fmt 4.6, Leading zero omitted, Abs format (unit mm)*
G04 Created by KiCad (PCBNEW (6.0.1-0)) date 2022-02-03 05:16:20*
%MOMM*%
%LPD*%
G01*
G04 APERTURE LIST*
G04 Aperture macros list*
%AMRoundRect*
0 Rectangle with rounded corners*
0 $1 Rounding radius*
0 $2 $3 $4 $5 $6 $7 $8 $9 X,Y pos of 4 corners*
0 Add a 4 corners polygon primitive as box body*
4,1,4,$2,$3,$4,$5,$6,$7,$8,$9,$2,$3,0*
0 Add four circle primitives for the rounded corners*
1,1,$1+$1,$2,$3*
1,1,$1+$1,$4,$5*
1,1,$1+$1,$6,$7*
1,1,$1+$1,$8,$9*
0 Add four rect primitives between the rounded corners*
20,1,$1+$1,$2,$3,$4,$5,0*
20,1,$1+$1,$4,$5,$6,$7,0*
20,1,$1+$1,$6,$7,$8,$9,0*
20,1,$1+$1,$8,$9,$2,$3,0*%
G04 Aperture macros list end*
%ADD10C,2.950000*%
%ADD11RoundRect,0.299999X0.525001X0.525001X-0.525001X0.525001X-0.525001X-0.525001X0.525001X-0.525001X0*%
%ADD12C,1.650000*%
%ADD13C,2.100000*%
%ADD14C,2.474900*%
%ADD15C,1.090600*%
%ADD16O,1.170000X2.000000*%
%ADD17C,1.400000*%
G04 APERTURE END LIST*
D10*
X203500000Y-135170000D03*
X203500000Y-45170000D03*
D11*
X205740000Y-129540000D03*
D12*
X205740000Y-127000000D03*
X205740000Y-124460000D03*
X205740000Y-121920000D03*
X205740000Y-119380000D03*
X205740000Y-116840000D03*
X205740000Y-114300000D03*
X205740000Y-111760000D03*
X205740000Y-109220000D03*
X205740000Y-106680000D03*
X205740000Y-104140000D03*
X205740000Y-101600000D03*
X205740000Y-99060000D03*
X205740000Y-96520000D03*
X205740000Y-93980000D03*
X205740000Y-91440000D03*
X205740000Y-88900000D03*
X205740000Y-86360000D03*
X205740000Y-83820000D03*
X205740000Y-81280000D03*
X205740000Y-78740000D03*
X205740000Y-76200000D03*
X205740000Y-73660000D03*
X205740000Y-71120000D03*
X205740000Y-68580000D03*
X205740000Y-66040000D03*
X205740000Y-63500000D03*
X205740000Y-60960000D03*
X205740000Y-58420000D03*
X205740000Y-55880000D03*
X205740000Y-53340000D03*
X205740000Y-50800000D03*
X203200000Y-129540000D03*
X203200000Y-127000000D03*
X203200000Y-124460000D03*
X203200000Y-121920000D03*
X203200000Y-119380000D03*
X203200000Y-116840000D03*
X203200000Y-114300000D03*
X203200000Y-111760000D03*
X203200000Y-109220000D03*
X203200000Y-106680000D03*
X203200000Y-104140000D03*
X203200000Y-101600000D03*
X203200000Y-99060000D03*
X203200000Y-96520000D03*
X203200000Y-93980000D03*
X203200000Y-91440000D03*
X203200000Y-88900000D03*
X203200000Y-86360000D03*
X203200000Y-83820000D03*
X203200000Y-81280000D03*
X203200000Y-78740000D03*
X203200000Y-76200000D03*
X203200000Y-73660000D03*
X203200000Y-71120000D03*
X203200000Y-68580000D03*
X203200000Y-66040000D03*
X203200000Y-63500000D03*
X203200000Y-60960000D03*
X203200000Y-58420000D03*
X203200000Y-55880000D03*
X203200000Y-53340000D03*
X203200000Y-50800000D03*
X200660000Y-129540000D03*
X200660000Y-127000000D03*
X200660000Y-124460000D03*
X200660000Y-121920000D03*
X200660000Y-119380000D03*
X200660000Y-116840000D03*
X200660000Y-114300000D03*
X200660000Y-111760000D03*
X200660000Y-109220000D03*
X200660000Y-106680000D03*
X200660000Y-104140000D03*
X200660000Y-101600000D03*
X200660000Y-99060000D03*
X200660000Y-96520000D03*
X200660000Y-93980000D03*
X200660000Y-91440000D03*
X200660000Y-88900000D03*
X200660000Y-86360000D03*
X200660000Y-83820000D03*
X200660000Y-81280000D03*
X200660000Y-78740000D03*
X200660000Y-76200000D03*
X200660000Y-73660000D03*
X200660000Y-71120000D03*
X200660000Y-68580000D03*
X200660000Y-66040000D03*
X200660000Y-63500000D03*
X200660000Y-60960000D03*
X200660000Y-58420000D03*
X200660000Y-55880000D03*
X200660000Y-53340000D03*
X200660000Y-50800000D03*
D13*
X105283000Y-42418000D03*
X210312000Y-39878000D03*
X210312000Y-137922000D03*
X196469000Y-137922000D03*
X113665000Y-127508000D03*
D14*
X111447012Y-52537064D03*
D15*
X109650961Y-50741013D03*
X114320694Y-44634439D03*
D14*
X111896025Y-44903846D03*
X107854910Y-48944962D03*
X115488128Y-48495949D03*
D15*
X115757535Y-46071280D03*
D16*
X179650000Y-39562500D03*
X186850000Y-39562500D03*
D17*
X185675000Y-42212500D03*
X180825000Y-42212500D03*
M02*
