G04 #@! TF.GenerationSoftware,KiCad,Pcbnew,(6.0.2-0)*
G04 #@! TF.CreationDate,2022-05-25T21:37:05-04:00*
G04 #@! TF.ProjectId,WarpSE,57617270-5345-42e6-9b69-6361645f7063,rev?*
G04 #@! TF.SameCoordinates,Original*
G04 #@! TF.FileFunction,Legend,Bot*
G04 #@! TF.FilePolarity,Positive*
%FSLAX46Y46*%
G04 Gerber Fmt 4.6, Leading zero omitted, Abs format (unit mm)*
G04 Created by KiCad (PCBNEW (6.0.2-0)) date 2022-05-25 21:37:05*
%MOMM*%
%LPD*%
G01*
G04 APERTURE LIST*
G04 Aperture macros list*
%AMRoundRect*
0 Rectangle with rounded corners*
0 $1 Rounding radius*
0 $2 $3 $4 $5 $6 $7 $8 $9 X,Y pos of 4 corners*
0 Add a 4 corners polygon primitive as box body*
4,1,4,$2,$3,$4,$5,$6,$7,$8,$9,$2,$3,0*
0 Add four circle primitives for the rounded corners*
1,1,$1+$1,$2,$3*
1,1,$1+$1,$4,$5*
1,1,$1+$1,$6,$7*
1,1,$1+$1,$8,$9*
0 Add four rect primitives between the rounded corners*
20,1,$1+$1,$2,$3,$4,$5,0*
20,1,$1+$1,$4,$5,$6,$7,0*
20,1,$1+$1,$6,$7,$8,$9,0*
20,1,$1+$1,$8,$9,$2,$3,0*%
G04 Aperture macros list end*
%ADD10C,0.203200*%
%ADD11C,2.950000*%
%ADD12RoundRect,0.299999X0.525001X0.525001X-0.525001X0.525001X-0.525001X-0.525001X0.525001X-0.525001X0*%
%ADD13C,1.650000*%
%ADD14C,1.448000*%
%ADD15C,2.474900*%
%ADD16C,1.090600*%
%ADD17O,1.170000X2.000000*%
%ADD18C,1.400000*%
G04 APERTURE END LIST*
D10*
X205135238Y-39115395D02*
X204593371Y-39115395D01*
X205135238Y-39928195D01*
X204593371Y-39928195D01*
X204283733Y-39928195D02*
X204283733Y-39115395D01*
X203819276Y-39928195D02*
X204167619Y-39463738D01*
X203819276Y-39115395D02*
X204283733Y-39579852D01*
X203432228Y-39889490D02*
X203432228Y-39928195D01*
X203470933Y-40005604D01*
X203509638Y-40044309D01*
X202038857Y-39154100D02*
X202116266Y-39115395D01*
X202232380Y-39115395D01*
X202348495Y-39154100D01*
X202425904Y-39231509D01*
X202464609Y-39308919D01*
X202503314Y-39463738D01*
X202503314Y-39579852D01*
X202464609Y-39734671D01*
X202425904Y-39812080D01*
X202348495Y-39889490D01*
X202232380Y-39928195D01*
X202154971Y-39928195D01*
X202038857Y-39889490D01*
X202000152Y-39850785D01*
X202000152Y-39579852D01*
X202154971Y-39579852D01*
X201380876Y-39502442D02*
X201651809Y-39502442D01*
X201651809Y-39928195D02*
X201651809Y-39115395D01*
X201264761Y-39115395D01*
%LPC*%
D11*
X203500000Y-135170000D03*
X203500000Y-45170000D03*
D12*
X205740000Y-129540000D03*
D13*
X205740000Y-127000000D03*
X205740000Y-124460000D03*
X205740000Y-121920000D03*
X205740000Y-119380000D03*
X205740000Y-116840000D03*
X205740000Y-114300000D03*
X205740000Y-111760000D03*
X205740000Y-109220000D03*
X205740000Y-106680000D03*
X205740000Y-104140000D03*
X205740000Y-101600000D03*
X205740000Y-99060000D03*
X205740000Y-96520000D03*
X205740000Y-93980000D03*
X205740000Y-91440000D03*
X205740000Y-88900000D03*
X205740000Y-86360000D03*
X205740000Y-83820000D03*
X205740000Y-81280000D03*
X205740000Y-78740000D03*
X205740000Y-76200000D03*
X205740000Y-73660000D03*
X205740000Y-71120000D03*
X205740000Y-68580000D03*
X205740000Y-66040000D03*
X205740000Y-63500000D03*
X205740000Y-60960000D03*
X205740000Y-58420000D03*
X205740000Y-55880000D03*
X205740000Y-53340000D03*
X205740000Y-50800000D03*
X203200000Y-129540000D03*
X203200000Y-127000000D03*
X203200000Y-124460000D03*
X203200000Y-121920000D03*
X203200000Y-119380000D03*
X203200000Y-116840000D03*
X203200000Y-114300000D03*
X203200000Y-111760000D03*
X203200000Y-109220000D03*
X203200000Y-106680000D03*
X203200000Y-104140000D03*
X203200000Y-101600000D03*
X203200000Y-99060000D03*
X203200000Y-96520000D03*
X203200000Y-93980000D03*
X203200000Y-91440000D03*
X203200000Y-88900000D03*
X203200000Y-86360000D03*
X203200000Y-83820000D03*
X203200000Y-81280000D03*
X203200000Y-78740000D03*
X203200000Y-76200000D03*
X203200000Y-73660000D03*
X203200000Y-71120000D03*
X203200000Y-68580000D03*
X203200000Y-66040000D03*
X203200000Y-63500000D03*
X203200000Y-60960000D03*
X203200000Y-58420000D03*
X203200000Y-55880000D03*
X203200000Y-53340000D03*
X203200000Y-50800000D03*
X200660000Y-129540000D03*
X200660000Y-127000000D03*
X200660000Y-124460000D03*
X200660000Y-121920000D03*
X200660000Y-119380000D03*
X200660000Y-116840000D03*
X200660000Y-114300000D03*
X200660000Y-111760000D03*
X200660000Y-109220000D03*
X200660000Y-106680000D03*
X200660000Y-104140000D03*
X200660000Y-101600000D03*
X200660000Y-99060000D03*
X200660000Y-96520000D03*
X200660000Y-93980000D03*
X200660000Y-91440000D03*
X200660000Y-88900000D03*
X200660000Y-86360000D03*
X200660000Y-83820000D03*
X200660000Y-81280000D03*
X200660000Y-78740000D03*
X200660000Y-76200000D03*
X200660000Y-73660000D03*
X200660000Y-71120000D03*
X200660000Y-68580000D03*
X200660000Y-66040000D03*
X200660000Y-63500000D03*
X200660000Y-60960000D03*
X200660000Y-58420000D03*
X200660000Y-55880000D03*
X200660000Y-53340000D03*
X200660000Y-50800000D03*
D14*
X105283000Y-39878000D03*
X210312000Y-39878000D03*
X210312000Y-137922000D03*
X196469000Y-137922000D03*
X113665000Y-127508000D03*
D15*
X111447012Y-52537064D03*
D16*
X109650961Y-50741013D03*
X114320694Y-44634439D03*
D15*
X111896025Y-44903846D03*
X107854910Y-48944962D03*
X115488128Y-48495949D03*
D16*
X115757535Y-46071280D03*
D17*
X179650000Y-39562500D03*
X186850000Y-39562500D03*
D18*
X185675000Y-42212500D03*
X180825000Y-42212500D03*
M02*
