G04 #@! TF.GenerationSoftware,KiCad,Pcbnew,(6.0.1-0)*
G04 #@! TF.CreationDate,2022-02-03T05:16:20-05:00*
G04 #@! TF.ProjectId,Warp-SE,57617270-2d53-4452-9e6b-696361645f70,rev?*
G04 #@! TF.SameCoordinates,Original*
G04 #@! TF.FileFunction,Legend,Top*
G04 #@! TF.FilePolarity,Positive*
%FSLAX46Y46*%
G04 Gerber Fmt 4.6, Leading zero omitted, Abs format (unit mm)*
G04 Created by KiCad (PCBNEW (6.0.1-0)) date 2022-02-03 05:16:20*
%MOMM*%
%LPD*%
G01*
G04 APERTURE LIST*
G04 Aperture macros list*
%AMRoundRect*
0 Rectangle with rounded corners*
0 $1 Rounding radius*
0 $2 $3 $4 $5 $6 $7 $8 $9 X,Y pos of 4 corners*
0 Add a 4 corners polygon primitive as box body*
4,1,4,$2,$3,$4,$5,$6,$7,$8,$9,$2,$3,0*
0 Add four circle primitives for the rounded corners*
1,1,$1+$1,$2,$3*
1,1,$1+$1,$4,$5*
1,1,$1+$1,$6,$7*
1,1,$1+$1,$8,$9*
0 Add four rect primitives between the rounded corners*
20,1,$1+$1,$2,$3,$4,$5,0*
20,1,$1+$1,$4,$5,$6,$7,0*
20,1,$1+$1,$6,$7,$8,$9,0*
20,1,$1+$1,$8,$9,$2,$3,0*%
G04 Aperture macros list end*
%ADD10C,0.350000*%
%ADD11C,0.203200*%
%ADD12C,0.300000*%
%ADD13C,0.225000*%
%ADD14C,0.152400*%
%ADD15C,0.120000*%
%ADD16C,0.200000*%
%ADD17C,0.150000*%
%ADD18RoundRect,0.312500X-0.437500X0.262500X-0.437500X-0.262500X0.437500X-0.262500X0.437500X0.262500X0*%
%ADD19RoundRect,0.312500X0.262500X0.437500X-0.262500X0.437500X-0.262500X-0.437500X0.262500X-0.437500X0*%
%ADD20RoundRect,0.262500X0.212500X0.262500X-0.212500X0.262500X-0.212500X-0.262500X0.212500X-0.262500X0*%
%ADD21RoundRect,0.312500X-0.262500X-0.437500X0.262500X-0.437500X0.262500X0.437500X-0.262500X0.437500X0*%
%ADD22RoundRect,0.099000X0.662500X0.075000X-0.662500X0.075000X-0.662500X-0.075000X0.662500X-0.075000X0*%
%ADD23RoundRect,0.099000X0.075000X0.662500X-0.075000X0.662500X-0.075000X-0.662500X0.075000X-0.662500X0*%
%ADD24RoundRect,0.312500X0.437500X-0.262500X0.437500X0.262500X-0.437500X0.262500X-0.437500X-0.262500X0*%
%ADD25RoundRect,0.350000X-0.176777X-0.813173X0.813173X0.176777X0.176777X0.813173X-0.813173X-0.176777X0*%
%ADD26RoundRect,0.350000X0.636396X-1.626346X1.626346X-0.636396X-0.636396X1.626346X-1.626346X0.636396X0*%
%ADD27RoundRect,0.200000X-0.150000X1.374000X-0.150000X-1.374000X0.150000X-1.374000X0.150000X1.374000X0*%
%ADD28C,2.950000*%
%ADD29RoundRect,0.299999X0.525001X0.525001X-0.525001X0.525001X-0.525001X-0.525001X0.525001X-0.525001X0*%
%ADD30C,1.650000*%
%ADD31RoundRect,0.262500X-0.212500X-0.262500X0.212500X-0.262500X0.212500X0.262500X-0.212500X0.262500X0*%
%ADD32RoundRect,0.136500X-0.612500X-0.112500X0.612500X-0.112500X0.612500X0.112500X-0.612500X0.112500X0*%
%ADD33RoundRect,0.262500X-0.262500X0.212500X-0.262500X-0.212500X0.262500X-0.212500X0.262500X0.212500X0*%
%ADD34RoundRect,0.262500X0.262500X-0.212500X0.262500X0.212500X-0.262500X0.212500X-0.262500X-0.212500X0*%
%ADD35C,2.000000*%
%ADD36C,2.100000*%
%ADD37RoundRect,0.225000X-0.300000X0.175000X-0.300000X-0.175000X0.300000X-0.175000X0.300000X0.175000X0*%
%ADD38RoundRect,0.350000X-0.300000X0.400000X-0.300000X-0.400000X0.300000X-0.400000X0.300000X0.400000X0*%
%ADD39RoundRect,0.200000X0.587500X-0.150000X0.587500X0.150000X-0.587500X0.150000X-0.587500X-0.150000X0*%
%ADD40RoundRect,0.200000X0.150000X-0.587500X0.150000X0.587500X-0.150000X0.587500X-0.150000X-0.587500X0*%
%ADD41RoundRect,0.200000X-0.150000X-0.700000X0.150000X-0.700000X0.150000X0.700000X-0.150000X0.700000X0*%
%ADD42RoundRect,0.200000X-0.700000X-0.150000X0.700000X-0.150000X0.700000X0.150000X-0.700000X0.150000X0*%
%ADD43RoundRect,0.350000X-0.450000X0.700000X-0.450000X-0.700000X0.450000X-0.700000X0.450000X0.700000X0*%
%ADD44RoundRect,0.350000X-1.600000X0.700000X-1.600000X-0.700000X1.600000X-0.700000X1.600000X0.700000X0*%
%ADD45C,2.474900*%
%ADD46C,1.090600*%
%ADD47C,0.887400*%
%ADD48RoundRect,0.120000X0.120000X0.545000X-0.120000X0.545000X-0.120000X-0.545000X0.120000X-0.545000X0*%
%ADD49O,1.170000X2.000000*%
%ADD50RoundRect,0.200000X0.150000X0.525000X-0.150000X0.525000X-0.150000X-0.525000X0.150000X-0.525000X0*%
%ADD51C,1.400000*%
%ADD52RoundRect,0.225000X0.175000X0.300000X-0.175000X0.300000X-0.175000X-0.300000X0.175000X-0.300000X0*%
%ADD53RoundRect,0.225000X0.335876X0.088388X0.088388X0.335876X-0.335876X-0.088388X-0.088388X-0.335876X0*%
%ADD54RoundRect,0.250000X-0.200000X0.475000X-0.200000X-0.475000X0.200000X-0.475000X0.200000X0.475000X0*%
%ADD55RoundRect,0.240000X-0.190000X0.572000X-0.190000X-0.572000X0.190000X-0.572000X0.190000X0.572000X0*%
%ADD56RoundRect,0.225000X-0.175000X-0.300000X0.175000X-0.300000X0.175000X0.300000X-0.175000X0.300000X0*%
%ADD57RoundRect,0.200000X0.825000X0.150000X-0.825000X0.150000X-0.825000X-0.150000X0.825000X-0.150000X0*%
%ADD58RoundRect,0.550000X-0.500000X1.750000X-0.500000X-1.750000X0.500000X-1.750000X0.500000X1.750000X0*%
%ADD59RoundRect,0.250000X0.200000X-0.475000X0.200000X0.475000X-0.200000X0.475000X-0.200000X-0.475000X0*%
G04 APERTURE END LIST*
D10*
X123380500Y-124777500D02*
X123380500Y-124777400D01*
D11*
X122174000Y-125349000D02*
X124587000Y-125349000D01*
X124587000Y-123571000D02*
X122174000Y-123571000D01*
X124587000Y-125349000D02*
X124587000Y-123571000D01*
X122174000Y-125349000D02*
X122174000Y-123571000D01*
X122174000Y-122936000D02*
X124587000Y-122936000D01*
X124587000Y-122936000D02*
X124587000Y-121158000D01*
X122174000Y-122936000D02*
X122174000Y-121158000D01*
X124587000Y-121158000D02*
X122174000Y-121158000D01*
D10*
X123380500Y-121729500D02*
X123380500Y-121729400D01*
D11*
X112649000Y-125349000D02*
X115062000Y-125349000D01*
D10*
X113220550Y-121729400D02*
X113220650Y-121729400D01*
D11*
X115062000Y-122936000D02*
X115062000Y-121158000D01*
X112649000Y-125349000D02*
X112649000Y-123571000D01*
X112649000Y-122936000D02*
X112649000Y-121158000D01*
X115062000Y-121158000D02*
X112649000Y-121158000D01*
X115062000Y-123571000D02*
X112649000Y-123571000D01*
X115062000Y-125349000D02*
X115062000Y-123571000D01*
X112649000Y-122936000D02*
X115062000Y-122936000D01*
D10*
X113220500Y-124777350D02*
X113220500Y-124777250D01*
D12*
X148527361Y-40313428D02*
X148699718Y-41837428D01*
X149126076Y-40748857D01*
X149280290Y-41837428D01*
X149833647Y-40313428D01*
X150876861Y-41837428D02*
X150976647Y-41039142D01*
X150922218Y-40894000D01*
X150786147Y-40821428D01*
X150495861Y-40821428D01*
X150341647Y-40894000D01*
X150885933Y-41764857D02*
X150731718Y-41837428D01*
X150368861Y-41837428D01*
X150232790Y-41764857D01*
X150178361Y-41619714D01*
X150196504Y-41474571D01*
X150287218Y-41329428D01*
X150441433Y-41256857D01*
X150804290Y-41256857D01*
X150958504Y-41184285D01*
X151602576Y-41837428D02*
X151729576Y-40821428D01*
X151693290Y-41111714D02*
X151784004Y-40966571D01*
X151865647Y-40894000D01*
X152019861Y-40821428D01*
X152165004Y-40821428D01*
X152673004Y-40821428D02*
X152482504Y-42345428D01*
X152663933Y-40894000D02*
X152818147Y-40821428D01*
X153108433Y-40821428D01*
X153244504Y-40894000D01*
X153308004Y-40966571D01*
X153362433Y-41111714D01*
X153308004Y-41547142D01*
X153217290Y-41692285D01*
X153135647Y-41764857D01*
X152981433Y-41837428D01*
X152691147Y-41837428D01*
X152555076Y-41764857D01*
X153861361Y-41764857D02*
X154070004Y-41837428D01*
X154432861Y-41837428D01*
X154587076Y-41764857D01*
X154668718Y-41692285D01*
X154759433Y-41547142D01*
X154777576Y-41402000D01*
X154723147Y-41256857D01*
X154659647Y-41184285D01*
X154523576Y-41111714D01*
X154242361Y-41039142D01*
X154106290Y-40966571D01*
X154042790Y-40894000D01*
X153988361Y-40748857D01*
X154006504Y-40603714D01*
X154097218Y-40458571D01*
X154178861Y-40386000D01*
X154333076Y-40313428D01*
X154695933Y-40313428D01*
X154904576Y-40386000D01*
X155476076Y-41039142D02*
X155984076Y-41039142D01*
X156102004Y-41837428D02*
X155376290Y-41837428D01*
X155566790Y-40313428D01*
X156292504Y-40313428D01*
D11*
X143667238Y-43603333D02*
X144151047Y-43603333D01*
X143570476Y-43893619D02*
X143909142Y-42877619D01*
X144247809Y-43893619D01*
X145021904Y-43845238D02*
X144925142Y-43893619D01*
X144731619Y-43893619D01*
X144634857Y-43845238D01*
X144586476Y-43796857D01*
X144538095Y-43700095D01*
X144538095Y-43409809D01*
X144586476Y-43313047D01*
X144634857Y-43264666D01*
X144731619Y-43216285D01*
X144925142Y-43216285D01*
X145021904Y-43264666D01*
X145892761Y-43845238D02*
X145796000Y-43893619D01*
X145602476Y-43893619D01*
X145505714Y-43845238D01*
X145457333Y-43796857D01*
X145408952Y-43700095D01*
X145408952Y-43409809D01*
X145457333Y-43313047D01*
X145505714Y-43264666D01*
X145602476Y-43216285D01*
X145796000Y-43216285D01*
X145892761Y-43264666D01*
X146715238Y-43845238D02*
X146618476Y-43893619D01*
X146424952Y-43893619D01*
X146328190Y-43845238D01*
X146279809Y-43748476D01*
X146279809Y-43361428D01*
X146328190Y-43264666D01*
X146424952Y-43216285D01*
X146618476Y-43216285D01*
X146715238Y-43264666D01*
X146763619Y-43361428D01*
X146763619Y-43458190D01*
X146279809Y-43554952D01*
X147344190Y-43893619D02*
X147247428Y-43845238D01*
X147199047Y-43748476D01*
X147199047Y-42877619D01*
X148118285Y-43845238D02*
X148021523Y-43893619D01*
X147828000Y-43893619D01*
X147731238Y-43845238D01*
X147682857Y-43748476D01*
X147682857Y-43361428D01*
X147731238Y-43264666D01*
X147828000Y-43216285D01*
X148021523Y-43216285D01*
X148118285Y-43264666D01*
X148166666Y-43361428D01*
X148166666Y-43458190D01*
X147682857Y-43554952D01*
X148602095Y-43893619D02*
X148602095Y-43216285D01*
X148602095Y-43409809D02*
X148650476Y-43313047D01*
X148698857Y-43264666D01*
X148795619Y-43216285D01*
X148892380Y-43216285D01*
X149666476Y-43893619D02*
X149666476Y-43361428D01*
X149618095Y-43264666D01*
X149521333Y-43216285D01*
X149327809Y-43216285D01*
X149231047Y-43264666D01*
X149666476Y-43845238D02*
X149569714Y-43893619D01*
X149327809Y-43893619D01*
X149231047Y-43845238D01*
X149182666Y-43748476D01*
X149182666Y-43651714D01*
X149231047Y-43554952D01*
X149327809Y-43506571D01*
X149569714Y-43506571D01*
X149666476Y-43458190D01*
X150005142Y-43216285D02*
X150392190Y-43216285D01*
X150150285Y-42877619D02*
X150150285Y-43748476D01*
X150198666Y-43845238D01*
X150295428Y-43893619D01*
X150392190Y-43893619D01*
X150876000Y-43893619D02*
X150779238Y-43845238D01*
X150730857Y-43796857D01*
X150682476Y-43700095D01*
X150682476Y-43409809D01*
X150730857Y-43313047D01*
X150779238Y-43264666D01*
X150876000Y-43216285D01*
X151021142Y-43216285D01*
X151117904Y-43264666D01*
X151166285Y-43313047D01*
X151214666Y-43409809D01*
X151214666Y-43700095D01*
X151166285Y-43796857D01*
X151117904Y-43845238D01*
X151021142Y-43893619D01*
X150876000Y-43893619D01*
X151650095Y-43893619D02*
X151650095Y-43216285D01*
X151650095Y-43409809D02*
X151698476Y-43313047D01*
X151746857Y-43264666D01*
X151843619Y-43216285D01*
X151940380Y-43216285D01*
X152908000Y-43216285D02*
X153295047Y-43216285D01*
X153053142Y-43893619D02*
X153053142Y-43022761D01*
X153101523Y-42926000D01*
X153198285Y-42877619D01*
X153295047Y-42877619D01*
X153778857Y-43893619D02*
X153682095Y-43845238D01*
X153633714Y-43796857D01*
X153585333Y-43700095D01*
X153585333Y-43409809D01*
X153633714Y-43313047D01*
X153682095Y-43264666D01*
X153778857Y-43216285D01*
X153924000Y-43216285D01*
X154020761Y-43264666D01*
X154069142Y-43313047D01*
X154117523Y-43409809D01*
X154117523Y-43700095D01*
X154069142Y-43796857D01*
X154020761Y-43845238D01*
X153924000Y-43893619D01*
X153778857Y-43893619D01*
X154552952Y-43893619D02*
X154552952Y-43216285D01*
X154552952Y-43409809D02*
X154601333Y-43313047D01*
X154649714Y-43264666D01*
X154746476Y-43216285D01*
X154843238Y-43216285D01*
X155956000Y-43893619D02*
X155956000Y-42877619D01*
X156294666Y-43603333D01*
X156633333Y-42877619D01*
X156633333Y-43893619D01*
X157552571Y-43893619D02*
X157552571Y-43361428D01*
X157504190Y-43264666D01*
X157407428Y-43216285D01*
X157213904Y-43216285D01*
X157117142Y-43264666D01*
X157552571Y-43845238D02*
X157455809Y-43893619D01*
X157213904Y-43893619D01*
X157117142Y-43845238D01*
X157068761Y-43748476D01*
X157068761Y-43651714D01*
X157117142Y-43554952D01*
X157213904Y-43506571D01*
X157455809Y-43506571D01*
X157552571Y-43458190D01*
X158471809Y-43845238D02*
X158375047Y-43893619D01*
X158181523Y-43893619D01*
X158084761Y-43845238D01*
X158036380Y-43796857D01*
X157988000Y-43700095D01*
X157988000Y-43409809D01*
X158036380Y-43313047D01*
X158084761Y-43264666D01*
X158181523Y-43216285D01*
X158375047Y-43216285D01*
X158471809Y-43264666D01*
X159632952Y-43845238D02*
X159778095Y-43893619D01*
X160020000Y-43893619D01*
X160116761Y-43845238D01*
X160165142Y-43796857D01*
X160213523Y-43700095D01*
X160213523Y-43603333D01*
X160165142Y-43506571D01*
X160116761Y-43458190D01*
X160020000Y-43409809D01*
X159826476Y-43361428D01*
X159729714Y-43313047D01*
X159681333Y-43264666D01*
X159632952Y-43167904D01*
X159632952Y-43071142D01*
X159681333Y-42974380D01*
X159729714Y-42926000D01*
X159826476Y-42877619D01*
X160068380Y-42877619D01*
X160213523Y-42926000D01*
X160648952Y-43361428D02*
X160987619Y-43361428D01*
X161132761Y-43893619D02*
X160648952Y-43893619D01*
X160648952Y-42877619D01*
X161132761Y-42877619D01*
D12*
X125368571Y-42874500D02*
X125225714Y-42803071D01*
X125011428Y-42803071D01*
X124797142Y-42874500D01*
X124654285Y-43017357D01*
X124582857Y-43160214D01*
X124511428Y-43445928D01*
X124511428Y-43660214D01*
X124582857Y-43945928D01*
X124654285Y-44088785D01*
X124797142Y-44231642D01*
X125011428Y-44303071D01*
X125154285Y-44303071D01*
X125368571Y-44231642D01*
X125440000Y-44160214D01*
X125440000Y-43660214D01*
X125154285Y-43660214D01*
X125940000Y-42803071D02*
X126297142Y-44303071D01*
X126582857Y-43231642D01*
X126868571Y-44303071D01*
X127225714Y-42803071D01*
X128830000Y-43366571D02*
X128830000Y-44366571D01*
X128472857Y-42795142D02*
X128115714Y-43866571D01*
X129044285Y-43866571D01*
X130258571Y-43366571D02*
X130258571Y-44366571D01*
X129901428Y-42795142D02*
X129544285Y-43866571D01*
X130472857Y-43866571D01*
X131830000Y-44366571D02*
X130972857Y-44366571D01*
X131401428Y-44366571D02*
X131401428Y-42866571D01*
X131258571Y-43080857D01*
X131115714Y-43223714D01*
X130972857Y-43295142D01*
X132758571Y-42866571D02*
X132901428Y-42866571D01*
X133044285Y-42938000D01*
X133115714Y-43009428D01*
X133187142Y-43152285D01*
X133258571Y-43438000D01*
X133258571Y-43795142D01*
X133187142Y-44080857D01*
X133115714Y-44223714D01*
X133044285Y-44295142D01*
X132901428Y-44366571D01*
X132758571Y-44366571D01*
X132615714Y-44295142D01*
X132544285Y-44223714D01*
X132472857Y-44080857D01*
X132401428Y-43795142D01*
X132401428Y-43438000D01*
X132472857Y-43152285D01*
X132544285Y-43009428D01*
X132615714Y-42938000D01*
X132758571Y-42866571D01*
X133830000Y-43938000D02*
X134544285Y-43938000D01*
X133687142Y-44366571D02*
X134187142Y-42866571D01*
X134687142Y-44366571D01*
D13*
X119887999Y-40132000D02*
X119742857Y-40059428D01*
X119525142Y-40059428D01*
X119307428Y-40132000D01*
X119162285Y-40277142D01*
X119089714Y-40422285D01*
X119017142Y-40712571D01*
X119017142Y-40930285D01*
X119089714Y-41220571D01*
X119162285Y-41365714D01*
X119307428Y-41510857D01*
X119525142Y-41583428D01*
X119670285Y-41583428D01*
X119887999Y-41510857D01*
X119960571Y-41438285D01*
X119960571Y-40930285D01*
X119670285Y-40930285D01*
X121266857Y-41583428D02*
X121266857Y-40785142D01*
X121194285Y-40640000D01*
X121049142Y-40567428D01*
X120758857Y-40567428D01*
X120613714Y-40640000D01*
X121266857Y-41510857D02*
X121121714Y-41583428D01*
X120758857Y-41583428D01*
X120613714Y-41510857D01*
X120541142Y-41365714D01*
X120541142Y-41220571D01*
X120613714Y-41075428D01*
X120758857Y-41002857D01*
X121121714Y-41002857D01*
X121266857Y-40930285D01*
X121992571Y-41583428D02*
X121992571Y-40567428D01*
X121992571Y-40857714D02*
X122065142Y-40712571D01*
X122137714Y-40640000D01*
X122282857Y-40567428D01*
X122427999Y-40567428D01*
X122935999Y-41583428D02*
X122935999Y-40567428D01*
X122935999Y-40857714D02*
X123008571Y-40712571D01*
X123081142Y-40640000D01*
X123226285Y-40567428D01*
X123371428Y-40567428D01*
X124459999Y-41510857D02*
X124314857Y-41583428D01*
X124024571Y-41583428D01*
X123879428Y-41510857D01*
X123806857Y-41365714D01*
X123806857Y-40785142D01*
X123879428Y-40640000D01*
X124024571Y-40567428D01*
X124314857Y-40567428D01*
X124459999Y-40640000D01*
X124532571Y-40785142D01*
X124532571Y-40930285D01*
X123806857Y-41075428D01*
X124967999Y-40567428D02*
X125548571Y-40567428D01*
X125185714Y-40059428D02*
X125185714Y-41365714D01*
X125258285Y-41510857D01*
X125403428Y-41583428D01*
X125548571Y-41583428D01*
X125838857Y-40567428D02*
X126419428Y-40567428D01*
X126056571Y-40059428D02*
X126056571Y-41365714D01*
X126129142Y-41510857D01*
X126274285Y-41583428D01*
X126419428Y-41583428D01*
X126999999Y-40059428D02*
X126999999Y-40132000D01*
X126927428Y-40277142D01*
X126854857Y-40349714D01*
X127580571Y-41510857D02*
X127725714Y-41583428D01*
X128015999Y-41583428D01*
X128161142Y-41510857D01*
X128233714Y-41365714D01*
X128233714Y-41293142D01*
X128161142Y-41148000D01*
X128015999Y-41075428D01*
X127798285Y-41075428D01*
X127653142Y-41002857D01*
X127580571Y-40857714D01*
X127580571Y-40785142D01*
X127653142Y-40640000D01*
X127798285Y-40567428D01*
X128015999Y-40567428D01*
X128161142Y-40640000D01*
X129902857Y-40059428D02*
X130265714Y-41583428D01*
X130555999Y-40494857D01*
X130846285Y-41583428D01*
X131209142Y-40059428D01*
X132007428Y-41583428D02*
X131862285Y-41510857D01*
X131789714Y-41438285D01*
X131717142Y-41293142D01*
X131717142Y-40857714D01*
X131789714Y-40712571D01*
X131862285Y-40640000D01*
X132007428Y-40567428D01*
X132225142Y-40567428D01*
X132370285Y-40640000D01*
X132442857Y-40712571D01*
X132515428Y-40857714D01*
X132515428Y-41293142D01*
X132442857Y-41438285D01*
X132370285Y-41510857D01*
X132225142Y-41583428D01*
X132007428Y-41583428D01*
X133168571Y-41583428D02*
X133168571Y-40567428D01*
X133168571Y-40857714D02*
X133241142Y-40712571D01*
X133313714Y-40640000D01*
X133458857Y-40567428D01*
X133603999Y-40567428D01*
X134111999Y-41583428D02*
X134111999Y-40059428D01*
X134257142Y-41002857D02*
X134692571Y-41583428D01*
X134692571Y-40567428D02*
X134111999Y-41148000D01*
X135273142Y-41510857D02*
X135418285Y-41583428D01*
X135708571Y-41583428D01*
X135853714Y-41510857D01*
X135926285Y-41365714D01*
X135926285Y-41293142D01*
X135853714Y-41148000D01*
X135708571Y-41075428D01*
X135490857Y-41075428D01*
X135345714Y-41002857D01*
X135273142Y-40857714D01*
X135273142Y-40785142D01*
X135345714Y-40640000D01*
X135490857Y-40567428D01*
X135708571Y-40567428D01*
X135853714Y-40640000D01*
X136579428Y-41583428D02*
X136579428Y-40059428D01*
X137232571Y-41583428D02*
X137232571Y-40785142D01*
X137160000Y-40640000D01*
X137014857Y-40567428D01*
X136797142Y-40567428D01*
X136652000Y-40640000D01*
X136579428Y-40712571D01*
X138176000Y-41583428D02*
X138030857Y-41510857D01*
X137958285Y-41438285D01*
X137885714Y-41293142D01*
X137885714Y-40857714D01*
X137958285Y-40712571D01*
X138030857Y-40640000D01*
X138176000Y-40567428D01*
X138393714Y-40567428D01*
X138538857Y-40640000D01*
X138611428Y-40712571D01*
X138684000Y-40857714D01*
X138684000Y-41293142D01*
X138611428Y-41438285D01*
X138538857Y-41510857D01*
X138393714Y-41583428D01*
X138176000Y-41583428D01*
X139337142Y-40567428D02*
X139337142Y-42091428D01*
X139337142Y-40640000D02*
X139482285Y-40567428D01*
X139772571Y-40567428D01*
X139917714Y-40640000D01*
X139990285Y-40712571D01*
X140062857Y-40857714D01*
X140062857Y-41293142D01*
X139990285Y-41438285D01*
X139917714Y-41510857D01*
X139772571Y-41583428D01*
X139482285Y-41583428D01*
X139337142Y-41510857D01*
D11*
X125741365Y-121982714D02*
X125441365Y-121982714D01*
X125441365Y-122454142D02*
X125441365Y-121554142D01*
X125869937Y-121554142D01*
X126598508Y-122454142D02*
X126598508Y-121982714D01*
X126555651Y-121897000D01*
X126469937Y-121854142D01*
X126298508Y-121854142D01*
X126212794Y-121897000D01*
X126598508Y-122411285D02*
X126512794Y-122454142D01*
X126298508Y-122454142D01*
X126212794Y-122411285D01*
X126169937Y-122325571D01*
X126169937Y-122239857D01*
X126212794Y-122154142D01*
X126298508Y-122111285D01*
X126512794Y-122111285D01*
X126598508Y-122068428D01*
X126984222Y-122411285D02*
X127069937Y-122454142D01*
X127241365Y-122454142D01*
X127327080Y-122411285D01*
X127369937Y-122325571D01*
X127369937Y-122282714D01*
X127327080Y-122197000D01*
X127241365Y-122154142D01*
X127112794Y-122154142D01*
X127027080Y-122111285D01*
X126984222Y-122025571D01*
X126984222Y-121982714D01*
X127027080Y-121897000D01*
X127112794Y-121854142D01*
X127241365Y-121854142D01*
X127327080Y-121897000D01*
X127627080Y-121854142D02*
X127969937Y-121854142D01*
X127755651Y-121554142D02*
X127755651Y-122325571D01*
X127798508Y-122411285D01*
X127884222Y-122454142D01*
X127969937Y-122454142D01*
X129469937Y-122454142D02*
X129169937Y-122025571D01*
X128955651Y-122454142D02*
X128955651Y-121554142D01*
X129298508Y-121554142D01*
X129384222Y-121597000D01*
X129427080Y-121639857D01*
X129469937Y-121725571D01*
X129469937Y-121854142D01*
X129427080Y-121939857D01*
X129384222Y-121982714D01*
X129298508Y-122025571D01*
X128955651Y-122025571D01*
X130027080Y-121554142D02*
X130198508Y-121554142D01*
X130284222Y-121597000D01*
X130369937Y-121682714D01*
X130412794Y-121854142D01*
X130412794Y-122154142D01*
X130369937Y-122325571D01*
X130284222Y-122411285D01*
X130198508Y-122454142D01*
X130027080Y-122454142D01*
X129941365Y-122411285D01*
X129855651Y-122325571D01*
X129812794Y-122154142D01*
X129812794Y-121854142D01*
X129855651Y-121682714D01*
X129941365Y-121597000D01*
X130027080Y-121554142D01*
X130798508Y-122454142D02*
X130798508Y-121554142D01*
X131098508Y-122197000D01*
X131398508Y-121554142D01*
X131398508Y-122454142D01*
X125441365Y-124867142D02*
X125441365Y-123967142D01*
X125741365Y-124610000D01*
X126041365Y-123967142D01*
X126041365Y-124867142D01*
X126598508Y-124867142D02*
X126512794Y-124824285D01*
X126469937Y-124781428D01*
X126427080Y-124695714D01*
X126427080Y-124438571D01*
X126469937Y-124352857D01*
X126512794Y-124310000D01*
X126598508Y-124267142D01*
X126727080Y-124267142D01*
X126812794Y-124310000D01*
X126855651Y-124352857D01*
X126898508Y-124438571D01*
X126898508Y-124695714D01*
X126855651Y-124781428D01*
X126812794Y-124824285D01*
X126727080Y-124867142D01*
X126598508Y-124867142D01*
X127155651Y-124267142D02*
X127498508Y-124267142D01*
X127284222Y-123967142D02*
X127284222Y-124738571D01*
X127327080Y-124824285D01*
X127412794Y-124867142D01*
X127498508Y-124867142D01*
X127798508Y-124867142D02*
X127798508Y-123967142D01*
X128184222Y-124867142D02*
X128184222Y-124395714D01*
X128141365Y-124310000D01*
X128055651Y-124267142D01*
X127927080Y-124267142D01*
X127841365Y-124310000D01*
X127798508Y-124352857D01*
X128955651Y-124824285D02*
X128869937Y-124867142D01*
X128698508Y-124867142D01*
X128612794Y-124824285D01*
X128569937Y-124738571D01*
X128569937Y-124395714D01*
X128612794Y-124310000D01*
X128698508Y-124267142D01*
X128869937Y-124267142D01*
X128955651Y-124310000D01*
X128998508Y-124395714D01*
X128998508Y-124481428D01*
X128569937Y-124567142D01*
X129384222Y-124867142D02*
X129384222Y-124267142D01*
X129384222Y-124438571D02*
X129427080Y-124352857D01*
X129469937Y-124310000D01*
X129555651Y-124267142D01*
X129641365Y-124267142D01*
X129941365Y-124867142D02*
X129941365Y-123967142D01*
X129941365Y-124310000D02*
X130027080Y-124267142D01*
X130198508Y-124267142D01*
X130284222Y-124310000D01*
X130327080Y-124352857D01*
X130369937Y-124438571D01*
X130369937Y-124695714D01*
X130327080Y-124781428D01*
X130284222Y-124824285D01*
X130198508Y-124867142D01*
X130027080Y-124867142D01*
X129941365Y-124824285D01*
X130884222Y-124867142D02*
X130798508Y-124824285D01*
X130755651Y-124781428D01*
X130712794Y-124695714D01*
X130712794Y-124438571D01*
X130755651Y-124352857D01*
X130798508Y-124310000D01*
X130884222Y-124267142D01*
X131012794Y-124267142D01*
X131098508Y-124310000D01*
X131141365Y-124352857D01*
X131184222Y-124438571D01*
X131184222Y-124695714D01*
X131141365Y-124781428D01*
X131098508Y-124824285D01*
X131012794Y-124867142D01*
X130884222Y-124867142D01*
X131955651Y-124867142D02*
X131955651Y-124395714D01*
X131912794Y-124310000D01*
X131827080Y-124267142D01*
X131655651Y-124267142D01*
X131569937Y-124310000D01*
X131955651Y-124824285D02*
X131869937Y-124867142D01*
X131655651Y-124867142D01*
X131569937Y-124824285D01*
X131527080Y-124738571D01*
X131527080Y-124652857D01*
X131569937Y-124567142D01*
X131655651Y-124524285D01*
X131869937Y-124524285D01*
X131955651Y-124481428D01*
X132384222Y-124867142D02*
X132384222Y-124267142D01*
X132384222Y-124438571D02*
X132427080Y-124352857D01*
X132469937Y-124310000D01*
X132555651Y-124267142D01*
X132641365Y-124267142D01*
X133327080Y-124867142D02*
X133327080Y-123967142D01*
X133327080Y-124824285D02*
X133241365Y-124867142D01*
X133069937Y-124867142D01*
X132984222Y-124824285D01*
X132941365Y-124781428D01*
X132898508Y-124695714D01*
X132898508Y-124438571D01*
X132941365Y-124352857D01*
X132984222Y-124310000D01*
X133069937Y-124267142D01*
X133241365Y-124267142D01*
X133327080Y-124310000D01*
X134955651Y-124867142D02*
X134655651Y-124438571D01*
X134441365Y-124867142D02*
X134441365Y-123967142D01*
X134784222Y-123967142D01*
X134869937Y-124010000D01*
X134912794Y-124052857D01*
X134955651Y-124138571D01*
X134955651Y-124267142D01*
X134912794Y-124352857D01*
X134869937Y-124395714D01*
X134784222Y-124438571D01*
X134441365Y-124438571D01*
X135512794Y-123967142D02*
X135684222Y-123967142D01*
X135769937Y-124010000D01*
X135855651Y-124095714D01*
X135898508Y-124267142D01*
X135898508Y-124567142D01*
X135855651Y-124738571D01*
X135769937Y-124824285D01*
X135684222Y-124867142D01*
X135512794Y-124867142D01*
X135427080Y-124824285D01*
X135341365Y-124738571D01*
X135298508Y-124567142D01*
X135298508Y-124267142D01*
X135341365Y-124095714D01*
X135427080Y-124010000D01*
X135512794Y-123967142D01*
X136284222Y-124867142D02*
X136284222Y-123967142D01*
X136584222Y-124610000D01*
X136884222Y-123967142D01*
X136884222Y-124867142D01*
X115873508Y-121639857D02*
X115916365Y-121597000D01*
X116002080Y-121554142D01*
X116216365Y-121554142D01*
X116302080Y-121597000D01*
X116344937Y-121639857D01*
X116387794Y-121725571D01*
X116387794Y-121811285D01*
X116344937Y-121939857D01*
X115830651Y-122454142D01*
X116387794Y-122454142D01*
X116944937Y-121554142D02*
X117030651Y-121554142D01*
X117116365Y-121597000D01*
X117159222Y-121639857D01*
X117202080Y-121725571D01*
X117244937Y-121897000D01*
X117244937Y-122111285D01*
X117202080Y-122282714D01*
X117159222Y-122368428D01*
X117116365Y-122411285D01*
X117030651Y-122454142D01*
X116944937Y-122454142D01*
X116859222Y-122411285D01*
X116816365Y-122368428D01*
X116773508Y-122282714D01*
X116730651Y-122111285D01*
X116730651Y-121897000D01*
X116773508Y-121725571D01*
X116816365Y-121639857D01*
X116859222Y-121597000D01*
X116944937Y-121554142D01*
X118316365Y-122454142D02*
X118316365Y-121554142D01*
X118616365Y-122197000D01*
X118916365Y-121554142D01*
X118916365Y-122454142D01*
X119344937Y-122454142D02*
X119344937Y-121554142D01*
X119344937Y-121982714D02*
X119859222Y-121982714D01*
X119859222Y-122454142D02*
X119859222Y-121554142D01*
X120202080Y-121854142D02*
X120673508Y-121854142D01*
X120202080Y-122454142D01*
X120673508Y-122454142D01*
X115873508Y-124052857D02*
X115916365Y-124010000D01*
X116002080Y-123967142D01*
X116216365Y-123967142D01*
X116302080Y-124010000D01*
X116344937Y-124052857D01*
X116387794Y-124138571D01*
X116387794Y-124224285D01*
X116344937Y-124352857D01*
X115830651Y-124867142D01*
X116387794Y-124867142D01*
X117202080Y-123967142D02*
X116773508Y-123967142D01*
X116730651Y-124395714D01*
X116773508Y-124352857D01*
X116859222Y-124310000D01*
X117073508Y-124310000D01*
X117159222Y-124352857D01*
X117202080Y-124395714D01*
X117244937Y-124481428D01*
X117244937Y-124695714D01*
X117202080Y-124781428D01*
X117159222Y-124824285D01*
X117073508Y-124867142D01*
X116859222Y-124867142D01*
X116773508Y-124824285D01*
X116730651Y-124781428D01*
X118316365Y-124867142D02*
X118316365Y-123967142D01*
X118616365Y-124610000D01*
X118916365Y-123967142D01*
X118916365Y-124867142D01*
X119344937Y-124867142D02*
X119344937Y-123967142D01*
X119344937Y-124395714D02*
X119859222Y-124395714D01*
X119859222Y-124867142D02*
X119859222Y-123967142D01*
X120202080Y-124267142D02*
X120673508Y-124267142D01*
X120202080Y-124867142D01*
X120673508Y-124867142D01*
X118630723Y-108654895D02*
X118630723Y-109312876D01*
X118669428Y-109390285D01*
X118708133Y-109428990D01*
X118785542Y-109467695D01*
X118940361Y-109467695D01*
X119017771Y-109428990D01*
X119056476Y-109390285D01*
X119095180Y-109312876D01*
X119095180Y-108654895D01*
X119907980Y-109467695D02*
X119443523Y-109467695D01*
X119675752Y-109467695D02*
X119675752Y-108654895D01*
X119598342Y-108771009D01*
X119520933Y-108848419D01*
X119443523Y-108887123D01*
X118723157Y-67502630D02*
X119188420Y-67037368D01*
X119215788Y-66955262D01*
X119215788Y-66900526D01*
X119188420Y-66818420D01*
X119078946Y-66708947D01*
X118996841Y-66681579D01*
X118942104Y-66681579D01*
X118859999Y-66708947D01*
X118394737Y-67174210D01*
X117874737Y-66654210D02*
X117984211Y-66763684D01*
X118066316Y-66791052D01*
X118121053Y-66791052D01*
X118257895Y-66763684D01*
X118394737Y-66681579D01*
X118613684Y-66462631D01*
X118641052Y-66380526D01*
X118641052Y-66325789D01*
X118613684Y-66243684D01*
X118504210Y-66134211D01*
X118422105Y-66106842D01*
X118367368Y-66106842D01*
X118285263Y-66134211D01*
X118148421Y-66271053D01*
X118121053Y-66353158D01*
X118121053Y-66407895D01*
X118148421Y-66490000D01*
X118257895Y-66599473D01*
X118340000Y-66626842D01*
X118394737Y-66626842D01*
X118476842Y-66599473D01*
X160670723Y-57720895D02*
X160670723Y-58378876D01*
X160709428Y-58456285D01*
X160748133Y-58494990D01*
X160825542Y-58533695D01*
X160980361Y-58533695D01*
X161057771Y-58494990D01*
X161096476Y-58456285D01*
X161135180Y-58378876D01*
X161135180Y-57720895D01*
X161560933Y-58533695D02*
X161715752Y-58533695D01*
X161793161Y-58494990D01*
X161831866Y-58456285D01*
X161909276Y-58340171D01*
X161947980Y-58185352D01*
X161947980Y-57875714D01*
X161909276Y-57798304D01*
X161870571Y-57759600D01*
X161793161Y-57720895D01*
X161638342Y-57720895D01*
X161560933Y-57759600D01*
X161522228Y-57798304D01*
X161483523Y-57875714D01*
X161483523Y-58069238D01*
X161522228Y-58146647D01*
X161560933Y-58185352D01*
X161638342Y-58224057D01*
X161793161Y-58224057D01*
X161870571Y-58185352D01*
X161909276Y-58146647D01*
X161947980Y-58069238D01*
X179154895Y-99344276D02*
X179812876Y-99344276D01*
X179890285Y-99305571D01*
X179928990Y-99266866D01*
X179967695Y-99189457D01*
X179967695Y-99034638D01*
X179928990Y-98957228D01*
X179890285Y-98918523D01*
X179812876Y-98879819D01*
X179154895Y-98879819D01*
X179232304Y-98531476D02*
X179193600Y-98492771D01*
X179154895Y-98415361D01*
X179154895Y-98221838D01*
X179193600Y-98144428D01*
X179232304Y-98105723D01*
X179309714Y-98067019D01*
X179387123Y-98067019D01*
X179503238Y-98105723D01*
X179967695Y-98570180D01*
X179967695Y-98067019D01*
X179154895Y-72431323D02*
X179812876Y-72431323D01*
X179890285Y-72392619D01*
X179928990Y-72353914D01*
X179967695Y-72276504D01*
X179967695Y-72121685D01*
X179928990Y-72044276D01*
X179890285Y-72005571D01*
X179812876Y-71966866D01*
X179154895Y-71966866D01*
X179232304Y-71618523D02*
X179193600Y-71579819D01*
X179154895Y-71502409D01*
X179154895Y-71308885D01*
X179193600Y-71231476D01*
X179232304Y-71192771D01*
X179309714Y-71154066D01*
X179387123Y-71154066D01*
X179503238Y-71192771D01*
X179967695Y-71657228D01*
X179967695Y-71154066D01*
X179425828Y-70457380D02*
X179967695Y-70457380D01*
X179116190Y-70650904D02*
X179696761Y-70844428D01*
X179696761Y-70341266D01*
X179154895Y-81531323D02*
X179812876Y-81531323D01*
X179890285Y-81492619D01*
X179928990Y-81453914D01*
X179967695Y-81376504D01*
X179967695Y-81221685D01*
X179928990Y-81144276D01*
X179890285Y-81105571D01*
X179812876Y-81066866D01*
X179154895Y-81066866D01*
X179232304Y-80718523D02*
X179193600Y-80679819D01*
X179154895Y-80602409D01*
X179154895Y-80408885D01*
X179193600Y-80331476D01*
X179232304Y-80292771D01*
X179309714Y-80254066D01*
X179387123Y-80254066D01*
X179503238Y-80292771D01*
X179967695Y-80757228D01*
X179967695Y-80254066D01*
X179154895Y-79983133D02*
X179154895Y-79479971D01*
X179464533Y-79750904D01*
X179464533Y-79634790D01*
X179503238Y-79557380D01*
X179541942Y-79518676D01*
X179619352Y-79479971D01*
X179812876Y-79479971D01*
X179890285Y-79518676D01*
X179928990Y-79557380D01*
X179967695Y-79634790D01*
X179967695Y-79867019D01*
X179928990Y-79944428D01*
X179890285Y-79983133D01*
X187654895Y-63331323D02*
X188312876Y-63331323D01*
X188390285Y-63292619D01*
X188428990Y-63253914D01*
X188467695Y-63176504D01*
X188467695Y-63021685D01*
X188428990Y-62944276D01*
X188390285Y-62905571D01*
X188312876Y-62866866D01*
X187654895Y-62866866D01*
X187732304Y-62518523D02*
X187693600Y-62479819D01*
X187654895Y-62402409D01*
X187654895Y-62208885D01*
X187693600Y-62131476D01*
X187732304Y-62092771D01*
X187809714Y-62054066D01*
X187887123Y-62054066D01*
X188003238Y-62092771D01*
X188467695Y-62557228D01*
X188467695Y-62054066D01*
X187732304Y-61744428D02*
X187693600Y-61705723D01*
X187654895Y-61628314D01*
X187654895Y-61434790D01*
X187693600Y-61357380D01*
X187732304Y-61318676D01*
X187809714Y-61279971D01*
X187887123Y-61279971D01*
X188003238Y-61318676D01*
X188467695Y-61783133D01*
X188467695Y-61279971D01*
X187654895Y-72431323D02*
X188312876Y-72431323D01*
X188390285Y-72392619D01*
X188428990Y-72353914D01*
X188467695Y-72276504D01*
X188467695Y-72121685D01*
X188428990Y-72044276D01*
X188390285Y-72005571D01*
X188312876Y-71966866D01*
X187654895Y-71966866D01*
X187732304Y-71618523D02*
X187693600Y-71579819D01*
X187654895Y-71502409D01*
X187654895Y-71308885D01*
X187693600Y-71231476D01*
X187732304Y-71192771D01*
X187809714Y-71154066D01*
X187887123Y-71154066D01*
X188003238Y-71192771D01*
X188467695Y-71657228D01*
X188467695Y-71154066D01*
X188467695Y-70379971D02*
X188467695Y-70844428D01*
X188467695Y-70612200D02*
X187654895Y-70612200D01*
X187771009Y-70689609D01*
X187848419Y-70767019D01*
X187887123Y-70844428D01*
X187654895Y-90631323D02*
X188312876Y-90631323D01*
X188390285Y-90592619D01*
X188428990Y-90553914D01*
X188467695Y-90476504D01*
X188467695Y-90321685D01*
X188428990Y-90244276D01*
X188390285Y-90205571D01*
X188312876Y-90166866D01*
X187654895Y-90166866D01*
X187732304Y-89818523D02*
X187693600Y-89779819D01*
X187654895Y-89702409D01*
X187654895Y-89508885D01*
X187693600Y-89431476D01*
X187732304Y-89392771D01*
X187809714Y-89354066D01*
X187887123Y-89354066D01*
X188003238Y-89392771D01*
X188467695Y-89857228D01*
X188467695Y-89354066D01*
X187654895Y-88850904D02*
X187654895Y-88773495D01*
X187693600Y-88696085D01*
X187732304Y-88657380D01*
X187809714Y-88618676D01*
X187964533Y-88579971D01*
X188158057Y-88579971D01*
X188312876Y-88618676D01*
X188390285Y-88657380D01*
X188428990Y-88696085D01*
X188467695Y-88773495D01*
X188467695Y-88850904D01*
X188428990Y-88928314D01*
X188390285Y-88967019D01*
X188312876Y-89005723D01*
X188158057Y-89044428D01*
X187964533Y-89044428D01*
X187809714Y-89005723D01*
X187732304Y-88967019D01*
X187693600Y-88928314D01*
X187654895Y-88850904D01*
X187654895Y-81531323D02*
X188312876Y-81531323D01*
X188390285Y-81492619D01*
X188428990Y-81453914D01*
X188467695Y-81376504D01*
X188467695Y-81221685D01*
X188428990Y-81144276D01*
X188390285Y-81105571D01*
X188312876Y-81066866D01*
X187654895Y-81066866D01*
X188467695Y-80254066D02*
X188467695Y-80718523D01*
X188467695Y-80486295D02*
X187654895Y-80486295D01*
X187771009Y-80563704D01*
X187848419Y-80641114D01*
X187887123Y-80718523D01*
X188467695Y-79867019D02*
X188467695Y-79712200D01*
X188428990Y-79634790D01*
X188390285Y-79596085D01*
X188274171Y-79518676D01*
X188119352Y-79479971D01*
X187809714Y-79479971D01*
X187732304Y-79518676D01*
X187693600Y-79557380D01*
X187654895Y-79634790D01*
X187654895Y-79789609D01*
X187693600Y-79867019D01*
X187732304Y-79905723D01*
X187809714Y-79944428D01*
X188003238Y-79944428D01*
X188080647Y-79905723D01*
X188119352Y-79867019D01*
X188158057Y-79789609D01*
X188158057Y-79634790D01*
X188119352Y-79557380D01*
X188080647Y-79518676D01*
X188003238Y-79479971D01*
X179154895Y-108831323D02*
X179812876Y-108831323D01*
X179890285Y-108792619D01*
X179928990Y-108753914D01*
X179967695Y-108676504D01*
X179967695Y-108521685D01*
X179928990Y-108444276D01*
X179890285Y-108405571D01*
X179812876Y-108366866D01*
X179154895Y-108366866D01*
X179967695Y-107554066D02*
X179967695Y-108018523D01*
X179967695Y-107786295D02*
X179154895Y-107786295D01*
X179271009Y-107863704D01*
X179348419Y-107941114D01*
X179387123Y-108018523D01*
X179503238Y-107089609D02*
X179464533Y-107167019D01*
X179425828Y-107205723D01*
X179348419Y-107244428D01*
X179309714Y-107244428D01*
X179232304Y-107205723D01*
X179193600Y-107167019D01*
X179154895Y-107089609D01*
X179154895Y-106934790D01*
X179193600Y-106857380D01*
X179232304Y-106818676D01*
X179309714Y-106779971D01*
X179348419Y-106779971D01*
X179425828Y-106818676D01*
X179464533Y-106857380D01*
X179503238Y-106934790D01*
X179503238Y-107089609D01*
X179541942Y-107167019D01*
X179580647Y-107205723D01*
X179658057Y-107244428D01*
X179812876Y-107244428D01*
X179890285Y-107205723D01*
X179928990Y-107167019D01*
X179967695Y-107089609D01*
X179967695Y-106934790D01*
X179928990Y-106857380D01*
X179890285Y-106818676D01*
X179812876Y-106779971D01*
X179658057Y-106779971D01*
X179580647Y-106818676D01*
X179541942Y-106857380D01*
X179503238Y-106934790D01*
X179154895Y-117931323D02*
X179812876Y-117931323D01*
X179890285Y-117892619D01*
X179928990Y-117853914D01*
X179967695Y-117776504D01*
X179967695Y-117621685D01*
X179928990Y-117544276D01*
X179890285Y-117505571D01*
X179812876Y-117466866D01*
X179154895Y-117466866D01*
X179967695Y-116654066D02*
X179967695Y-117118523D01*
X179967695Y-116886295D02*
X179154895Y-116886295D01*
X179271009Y-116963704D01*
X179348419Y-117041114D01*
X179387123Y-117118523D01*
X179154895Y-116383133D02*
X179154895Y-115841266D01*
X179967695Y-116189609D01*
X187654895Y-99731323D02*
X188312876Y-99731323D01*
X188390285Y-99692619D01*
X188428990Y-99653914D01*
X188467695Y-99576504D01*
X188467695Y-99421685D01*
X188428990Y-99344276D01*
X188390285Y-99305571D01*
X188312876Y-99266866D01*
X187654895Y-99266866D01*
X188467695Y-98454066D02*
X188467695Y-98918523D01*
X188467695Y-98686295D02*
X187654895Y-98686295D01*
X187771009Y-98763704D01*
X187848419Y-98841114D01*
X187887123Y-98918523D01*
X187654895Y-97757380D02*
X187654895Y-97912200D01*
X187693600Y-97989609D01*
X187732304Y-98028314D01*
X187848419Y-98105723D01*
X188003238Y-98144428D01*
X188312876Y-98144428D01*
X188390285Y-98105723D01*
X188428990Y-98067019D01*
X188467695Y-97989609D01*
X188467695Y-97834790D01*
X188428990Y-97757380D01*
X188390285Y-97718676D01*
X188312876Y-97679971D01*
X188119352Y-97679971D01*
X188041942Y-97718676D01*
X188003238Y-97757380D01*
X187964533Y-97834790D01*
X187964533Y-97989609D01*
X188003238Y-98067019D01*
X188041942Y-98105723D01*
X188119352Y-98144428D01*
X187654895Y-108831323D02*
X188312876Y-108831323D01*
X188390285Y-108792619D01*
X188428990Y-108753914D01*
X188467695Y-108676504D01*
X188467695Y-108521685D01*
X188428990Y-108444276D01*
X188390285Y-108405571D01*
X188312876Y-108366866D01*
X187654895Y-108366866D01*
X188467695Y-107554066D02*
X188467695Y-108018523D01*
X188467695Y-107786295D02*
X187654895Y-107786295D01*
X187771009Y-107863704D01*
X187848419Y-107941114D01*
X187887123Y-108018523D01*
X187654895Y-106818676D02*
X187654895Y-107205723D01*
X188041942Y-107244428D01*
X188003238Y-107205723D01*
X187964533Y-107128314D01*
X187964533Y-106934790D01*
X188003238Y-106857380D01*
X188041942Y-106818676D01*
X188119352Y-106779971D01*
X188312876Y-106779971D01*
X188390285Y-106818676D01*
X188428990Y-106857380D01*
X188467695Y-106934790D01*
X188467695Y-107128314D01*
X188428990Y-107205723D01*
X188390285Y-107244428D01*
X187654895Y-117931323D02*
X188312876Y-117931323D01*
X188390285Y-117892619D01*
X188428990Y-117853914D01*
X188467695Y-117776504D01*
X188467695Y-117621685D01*
X188428990Y-117544276D01*
X188390285Y-117505571D01*
X188312876Y-117466866D01*
X187654895Y-117466866D01*
X188467695Y-116654066D02*
X188467695Y-117118523D01*
X188467695Y-116886295D02*
X187654895Y-116886295D01*
X187771009Y-116963704D01*
X187848419Y-117041114D01*
X187887123Y-117118523D01*
X187654895Y-116383133D02*
X187654895Y-115879971D01*
X187964533Y-116150904D01*
X187964533Y-116034790D01*
X188003238Y-115957380D01*
X188041942Y-115918676D01*
X188119352Y-115879971D01*
X188312876Y-115879971D01*
X188390285Y-115918676D01*
X188428990Y-115957380D01*
X188467695Y-116034790D01*
X188467695Y-116267019D01*
X188428990Y-116344428D01*
X188390285Y-116383133D01*
X135270723Y-57720895D02*
X135270723Y-58378876D01*
X135309428Y-58456285D01*
X135348133Y-58494990D01*
X135425542Y-58533695D01*
X135580361Y-58533695D01*
X135657771Y-58494990D01*
X135696476Y-58456285D01*
X135735180Y-58378876D01*
X135735180Y-57720895D01*
X136238342Y-58069238D02*
X136160933Y-58030533D01*
X136122228Y-57991828D01*
X136083523Y-57914419D01*
X136083523Y-57875714D01*
X136122228Y-57798304D01*
X136160933Y-57759600D01*
X136238342Y-57720895D01*
X136393161Y-57720895D01*
X136470571Y-57759600D01*
X136509276Y-57798304D01*
X136547980Y-57875714D01*
X136547980Y-57914419D01*
X136509276Y-57991828D01*
X136470571Y-58030533D01*
X136393161Y-58069238D01*
X136238342Y-58069238D01*
X136160933Y-58107942D01*
X136122228Y-58146647D01*
X136083523Y-58224057D01*
X136083523Y-58378876D01*
X136122228Y-58456285D01*
X136160933Y-58494990D01*
X136238342Y-58533695D01*
X136393161Y-58533695D01*
X136470571Y-58494990D01*
X136509276Y-58456285D01*
X136547980Y-58378876D01*
X136547980Y-58224057D01*
X136509276Y-58146647D01*
X136470571Y-58107942D01*
X136393161Y-58069238D01*
X135444895Y-77206323D02*
X136102876Y-77206323D01*
X136180285Y-77167619D01*
X136218990Y-77128914D01*
X136257695Y-77051504D01*
X136257695Y-76896685D01*
X136218990Y-76819276D01*
X136180285Y-76780571D01*
X136102876Y-76741866D01*
X135444895Y-76741866D01*
X136257695Y-75929066D02*
X136257695Y-76393523D01*
X136257695Y-76161295D02*
X135444895Y-76161295D01*
X135561009Y-76238704D01*
X135638419Y-76316114D01*
X135677123Y-76393523D01*
X135444895Y-75425904D02*
X135444895Y-75348495D01*
X135483600Y-75271085D01*
X135522304Y-75232380D01*
X135599714Y-75193676D01*
X135754533Y-75154971D01*
X135948057Y-75154971D01*
X136102876Y-75193676D01*
X136180285Y-75232380D01*
X136218990Y-75271085D01*
X136257695Y-75348495D01*
X136257695Y-75425904D01*
X136218990Y-75503314D01*
X136180285Y-75542019D01*
X136102876Y-75580723D01*
X135948057Y-75619428D01*
X135754533Y-75619428D01*
X135599714Y-75580723D01*
X135522304Y-75542019D01*
X135483600Y-75503314D01*
X135444895Y-75425904D01*
X160844895Y-77206323D02*
X161502876Y-77206323D01*
X161580285Y-77167619D01*
X161618990Y-77128914D01*
X161657695Y-77051504D01*
X161657695Y-76896685D01*
X161618990Y-76819276D01*
X161580285Y-76780571D01*
X161502876Y-76741866D01*
X160844895Y-76741866D01*
X161657695Y-75929066D02*
X161657695Y-76393523D01*
X161657695Y-76161295D02*
X160844895Y-76161295D01*
X160961009Y-76238704D01*
X161038419Y-76316114D01*
X161077123Y-76393523D01*
X161657695Y-75154971D02*
X161657695Y-75619428D01*
X161657695Y-75387200D02*
X160844895Y-75387200D01*
X160961009Y-75464609D01*
X161038419Y-75542019D01*
X161077123Y-75619428D01*
X147583676Y-101535895D02*
X147583676Y-102193876D01*
X147622380Y-102271285D01*
X147661085Y-102309990D01*
X147738495Y-102348695D01*
X147893314Y-102348695D01*
X147970723Y-102309990D01*
X148009428Y-102271285D01*
X148048133Y-102193876D01*
X148048133Y-101535895D01*
X148860933Y-102348695D02*
X148396476Y-102348695D01*
X148628704Y-102348695D02*
X148628704Y-101535895D01*
X148551295Y-101652009D01*
X148473885Y-101729419D01*
X148396476Y-101768123D01*
X149557619Y-101806828D02*
X149557619Y-102348695D01*
X149364095Y-101497190D02*
X149170571Y-102077761D01*
X149673733Y-102077761D01*
X114330723Y-87154895D02*
X114330723Y-87812876D01*
X114369428Y-87890285D01*
X114408133Y-87928990D01*
X114485542Y-87967695D01*
X114640361Y-87967695D01*
X114717771Y-87928990D01*
X114756476Y-87890285D01*
X114795180Y-87812876D01*
X114795180Y-87154895D01*
X115104819Y-87154895D02*
X115607980Y-87154895D01*
X115337047Y-87464533D01*
X115453161Y-87464533D01*
X115530571Y-87503238D01*
X115569276Y-87541942D01*
X115607980Y-87619352D01*
X115607980Y-87812876D01*
X115569276Y-87890285D01*
X115530571Y-87928990D01*
X115453161Y-87967695D01*
X115220933Y-87967695D01*
X115143523Y-87928990D01*
X115104819Y-87890285D01*
X106866266Y-123518990D02*
X106982380Y-123557695D01*
X107175904Y-123557695D01*
X107253314Y-123518990D01*
X107292019Y-123480285D01*
X107330723Y-123402876D01*
X107330723Y-123325466D01*
X107292019Y-123248057D01*
X107253314Y-123209352D01*
X107175904Y-123170647D01*
X107021085Y-123131942D01*
X106943676Y-123093238D01*
X106904971Y-123054533D01*
X106866266Y-122977123D01*
X106866266Y-122899714D01*
X106904971Y-122822304D01*
X106943676Y-122783600D01*
X107021085Y-122744895D01*
X107214609Y-122744895D01*
X107330723Y-122783600D01*
X107601657Y-122744895D02*
X107795180Y-123557695D01*
X107950000Y-122977123D01*
X108104819Y-123557695D01*
X108298342Y-122744895D01*
X109033733Y-123557695D02*
X108569276Y-123557695D01*
X108801504Y-123557695D02*
X108801504Y-122744895D01*
X108724095Y-122861009D01*
X108646685Y-122938419D01*
X108569276Y-122977123D01*
X173654895Y-46094276D02*
X174312876Y-46094276D01*
X174390285Y-46055571D01*
X174428990Y-46016866D01*
X174467695Y-45939457D01*
X174467695Y-45784638D01*
X174428990Y-45707228D01*
X174390285Y-45668523D01*
X174312876Y-45629819D01*
X173654895Y-45629819D01*
X173654895Y-45320180D02*
X173654895Y-44778314D01*
X174467695Y-45126657D01*
X182307895Y-49901323D02*
X182965876Y-49901323D01*
X183043285Y-49862619D01*
X183081990Y-49823914D01*
X183120695Y-49746504D01*
X183120695Y-49591685D01*
X183081990Y-49514276D01*
X183043285Y-49475571D01*
X182965876Y-49436866D01*
X182307895Y-49436866D01*
X183120695Y-48624066D02*
X183120695Y-49088523D01*
X183120695Y-48856295D02*
X182307895Y-48856295D01*
X182424009Y-48933704D01*
X182501419Y-49011114D01*
X182540123Y-49088523D01*
X182385304Y-48314428D02*
X182346600Y-48275723D01*
X182307895Y-48198314D01*
X182307895Y-48004790D01*
X182346600Y-47927380D01*
X182385304Y-47888676D01*
X182462714Y-47849971D01*
X182540123Y-47849971D01*
X182656238Y-47888676D01*
X183120695Y-48353133D01*
X183120695Y-47849971D01*
X191780647Y-46687047D02*
X192167695Y-46687047D01*
X191354895Y-46957980D02*
X191780647Y-46687047D01*
X191354895Y-46416114D01*
X192167695Y-45719428D02*
X192167695Y-46183885D01*
X192167695Y-45951657D02*
X191354895Y-45951657D01*
X191471009Y-46029066D01*
X191548419Y-46106476D01*
X191587123Y-46183885D01*
D14*
X113703000Y-70801600D02*
X113703000Y-71614400D01*
X112103000Y-70801600D02*
X112103000Y-71614400D01*
X116205900Y-74714000D02*
X115393100Y-74714000D01*
X116205900Y-73114000D02*
X115393100Y-73114000D01*
X116205900Y-75527000D02*
X115393100Y-75527000D01*
X116205900Y-77127000D02*
X115393100Y-77127000D01*
D15*
X131112779Y-89910000D02*
X130787221Y-89910000D01*
X131112779Y-88890000D02*
X130787221Y-88890000D01*
D14*
X112993600Y-78850000D02*
X113806400Y-78850000D01*
X112993600Y-80450000D02*
X113806400Y-80450000D01*
D15*
X112140000Y-116210000D02*
X112140000Y-115510000D01*
X125660000Y-101990000D02*
X126360000Y-101990000D01*
X126360000Y-115510000D02*
X127650000Y-115510000D01*
X112840000Y-101990000D02*
X112140000Y-101990000D01*
X112140000Y-101990000D02*
X112140000Y-102690000D01*
X125660000Y-116210000D02*
X126360000Y-116210000D01*
X126360000Y-116210000D02*
X126360000Y-115510000D01*
X126360000Y-101990000D02*
X126360000Y-102690000D01*
X112840000Y-116210000D02*
X112140000Y-116210000D01*
D14*
X196253000Y-45022400D02*
X196253000Y-44209600D01*
X194653000Y-45022400D02*
X194653000Y-44209600D01*
X196253000Y-51243600D02*
X196253000Y-52056400D01*
X194653000Y-51243600D02*
X194653000Y-52056400D01*
X197066000Y-51243600D02*
X197066000Y-52056400D01*
X198666000Y-51243600D02*
X198666000Y-52056400D01*
X119703087Y-70469382D02*
X122361808Y-67810660D01*
X113289628Y-67237904D02*
X117539340Y-62988192D01*
X122361808Y-67810660D02*
X121470854Y-66919706D01*
X117539340Y-62988192D02*
X118430294Y-63879146D01*
D16*
X151765000Y-54291000D02*
X151765000Y-62041000D01*
X170815000Y-54291000D02*
X170815000Y-62041000D01*
X151765000Y-62041000D02*
X152510000Y-62041000D01*
X170815000Y-62041000D02*
X170070000Y-62041000D01*
X170815000Y-54291000D02*
X170165000Y-54291000D01*
X151765000Y-54291000D02*
X152510000Y-54291000D01*
X170165000Y-54291000D02*
X170165000Y-53467000D01*
D15*
X201350000Y-131671000D02*
X198850000Y-131671000D01*
X201350000Y-132671000D02*
X201350000Y-131671000D01*
X207550000Y-47670000D02*
X207550000Y-132671000D01*
X208860000Y-42560000D02*
X208860000Y-137780000D01*
X209730000Y-129240000D02*
X209050000Y-129540000D01*
X209730000Y-129840000D02*
X209730000Y-129240000D01*
X198850000Y-48670000D02*
X201350000Y-48670000D01*
X207550000Y-132671000D02*
X201350000Y-132671000D01*
X197540000Y-42560000D02*
X208860000Y-42560000D01*
X201350000Y-48670000D02*
X201350000Y-47670000D01*
X198850000Y-131671000D02*
X198850000Y-48670000D01*
X197540000Y-137780000D02*
X197540000Y-42560000D01*
X208860000Y-137780000D02*
X197540000Y-137780000D01*
X201350000Y-47670000D02*
X207550000Y-47670000D01*
X209050000Y-129540000D02*
X209730000Y-129840000D01*
X125837221Y-99960000D02*
X126162779Y-99960000D01*
X125837221Y-98940000D02*
X126162779Y-98940000D01*
D17*
X177375000Y-102175000D02*
X181825000Y-102175000D01*
X175850000Y-95275000D02*
X181825000Y-95275000D01*
D15*
X181962779Y-93840000D02*
X181637221Y-93840000D01*
X181962779Y-94860000D02*
X181637221Y-94860000D01*
X190462779Y-58460000D02*
X190137221Y-58460000D01*
X190462779Y-57440000D02*
X190137221Y-57440000D01*
X190462779Y-94860000D02*
X190137221Y-94860000D01*
X190462779Y-93840000D02*
X190137221Y-93840000D01*
X190462779Y-84740000D02*
X190137221Y-84740000D01*
X190462779Y-85760000D02*
X190137221Y-85760000D01*
X181962779Y-112040000D02*
X181637221Y-112040000D01*
X181962779Y-113060000D02*
X181637221Y-113060000D01*
X190462779Y-112040000D02*
X190137221Y-112040000D01*
X190462779Y-113060000D02*
X190137221Y-113060000D01*
X190462779Y-67560000D02*
X190137221Y-67560000D01*
X190462779Y-66540000D02*
X190137221Y-66540000D01*
X181962779Y-66540000D02*
X181637221Y-66540000D01*
X181962779Y-67560000D02*
X181637221Y-67560000D01*
X181962779Y-76660000D02*
X181637221Y-76660000D01*
X181962779Y-75640000D02*
X181637221Y-75640000D01*
X181962779Y-102940000D02*
X181637221Y-102940000D01*
X181962779Y-103960000D02*
X181637221Y-103960000D01*
X190462779Y-103960000D02*
X190137221Y-103960000D01*
X190462779Y-102940000D02*
X190137221Y-102940000D01*
D14*
X197066000Y-98616400D02*
X197066000Y-97803600D01*
X198666000Y-98616400D02*
X198666000Y-97803600D01*
X130772000Y-98614600D02*
X130772000Y-99427400D01*
X132372000Y-98614600D02*
X132372000Y-99427400D01*
X164808000Y-103694600D02*
X164808000Y-104507400D01*
X166408000Y-103694600D02*
X166408000Y-104507400D01*
D17*
X177375000Y-74875000D02*
X181825000Y-74875000D01*
X175850000Y-67975000D02*
X181825000Y-67975000D01*
X177375000Y-83975000D02*
X181825000Y-83975000D01*
X175850000Y-77075000D02*
X181825000Y-77075000D01*
X185875000Y-65775000D02*
X190325000Y-65775000D01*
X184350000Y-58875000D02*
X190325000Y-58875000D01*
X185875000Y-74875000D02*
X190325000Y-74875000D01*
X184350000Y-67975000D02*
X190325000Y-67975000D01*
X185875000Y-93075000D02*
X190325000Y-93075000D01*
X184350000Y-86175000D02*
X190325000Y-86175000D01*
X184350000Y-77075000D02*
X190325000Y-77075000D01*
X185875000Y-83975000D02*
X190325000Y-83975000D01*
X177375000Y-111275000D02*
X181825000Y-111275000D01*
X175850000Y-104375000D02*
X181825000Y-104375000D01*
X175850000Y-113475000D02*
X181825000Y-113475000D01*
X177375000Y-120375000D02*
X181825000Y-120375000D01*
X184350000Y-95275000D02*
X190325000Y-95275000D01*
X185875000Y-102175000D02*
X190325000Y-102175000D01*
X185875000Y-111275000D02*
X190325000Y-111275000D01*
X184350000Y-104375000D02*
X190325000Y-104375000D01*
X184350000Y-113475000D02*
X190325000Y-113475000D01*
X185875000Y-120375000D02*
X190325000Y-120375000D01*
D16*
X126365000Y-54291000D02*
X126365000Y-62041000D01*
X145415000Y-54291000D02*
X145415000Y-62041000D01*
X126365000Y-62041000D02*
X127110000Y-62041000D01*
X144765000Y-54291000D02*
X144765000Y-53467000D01*
X145415000Y-62041000D02*
X144670000Y-62041000D01*
X145415000Y-54291000D02*
X144765000Y-54291000D01*
X126365000Y-54291000D02*
X127110000Y-54291000D01*
D15*
X127012779Y-88890000D02*
X126687221Y-88890000D01*
X127012779Y-89910000D02*
X126687221Y-89910000D01*
X124587221Y-119260000D02*
X124912779Y-119260000D01*
X124587221Y-118240000D02*
X124912779Y-118240000D01*
X109090000Y-107187221D02*
X109090000Y-107512779D01*
X110110000Y-107187221D02*
X110110000Y-107512779D01*
X118412779Y-119260000D02*
X118087221Y-119260000D01*
X118412779Y-118240000D02*
X118087221Y-118240000D01*
X118662779Y-98940000D02*
X118337221Y-98940000D01*
X118662779Y-99960000D02*
X118337221Y-99960000D01*
X129410000Y-113687221D02*
X129410000Y-114012779D01*
X128390000Y-113687221D02*
X128390000Y-114012779D01*
X110110000Y-102512779D02*
X110110000Y-102187221D01*
X109090000Y-102512779D02*
X109090000Y-102187221D01*
X129660000Y-96937221D02*
X129660000Y-97262779D01*
X128640000Y-96937221D02*
X128640000Y-97262779D01*
X126940000Y-96937221D02*
X126940000Y-97262779D01*
X127960000Y-96937221D02*
X127960000Y-97262779D01*
X106043000Y-113629221D02*
X106043000Y-113954779D01*
X107063000Y-113629221D02*
X107063000Y-113954779D01*
X107567000Y-113629221D02*
X107567000Y-113954779D01*
X108587000Y-113629221D02*
X108587000Y-113954779D01*
D14*
X129100000Y-90450000D02*
X129100000Y-93700000D01*
X131700000Y-90450000D02*
X129100000Y-90450000D01*
X127600000Y-90450000D02*
X125000000Y-90450000D01*
X125000000Y-90450000D02*
X125000000Y-93700000D01*
X142985000Y-82025000D02*
X141530000Y-82025000D01*
X142985000Y-71830000D02*
X142985000Y-70375000D01*
X128795000Y-80852782D02*
X129967218Y-82025000D01*
X128795000Y-71830000D02*
X128795000Y-70375000D01*
X142985000Y-70375000D02*
X141530000Y-70375000D01*
X128795000Y-80570000D02*
X128795000Y-80852782D01*
X142985000Y-80570000D02*
X142985000Y-82025000D01*
X129967218Y-82025000D02*
X130250000Y-82025000D01*
X128795000Y-70375000D02*
X130250000Y-70375000D01*
X154195000Y-71830000D02*
X154195000Y-70375000D01*
X168385000Y-71830000D02*
X168385000Y-70375000D01*
X168385000Y-70375000D02*
X166930000Y-70375000D01*
X154195000Y-70375000D02*
X155650000Y-70375000D01*
X168385000Y-80570000D02*
X168385000Y-82025000D01*
X168385000Y-82025000D02*
X166930000Y-82025000D01*
X154195000Y-80570000D02*
X154195000Y-80852782D01*
X154195000Y-80852782D02*
X155367218Y-82025000D01*
X155367218Y-82025000D02*
X155650000Y-82025000D01*
D15*
X136364200Y-115476800D02*
X136364200Y-113971000D01*
X136364200Y-92200418D02*
X136364200Y-92531000D01*
X159310000Y-115476800D02*
X160815800Y-115476800D01*
X137870000Y-91025200D02*
X137539418Y-91025200D01*
X160815800Y-115476800D02*
X160815800Y-113971000D01*
X137870000Y-115476800D02*
X136364200Y-115476800D01*
X160815800Y-91025200D02*
X160815800Y-92531000D01*
X137539418Y-91025200D02*
X136364200Y-92200418D01*
X159310000Y-91025200D02*
X160815800Y-91025200D01*
D14*
X118360000Y-83500000D02*
X118360000Y-89510000D01*
X111540000Y-85750000D02*
X111540000Y-89510000D01*
X118360000Y-89510000D02*
X117100000Y-89510000D01*
X111540000Y-89510000D02*
X112800000Y-89510000D01*
X112600000Y-91393600D02*
X112600000Y-92206400D01*
X111000000Y-91393600D02*
X111000000Y-92206400D01*
X118900000Y-91393600D02*
X118900000Y-92206400D01*
X117300000Y-91393600D02*
X117300000Y-92206400D01*
X124752000Y-75373600D02*
X124752000Y-76186400D01*
X123152000Y-75373600D02*
X123152000Y-76186400D01*
X148552000Y-75373600D02*
X148552000Y-76186400D01*
X150152000Y-75373600D02*
X150152000Y-76186400D01*
X171285000Y-55434600D02*
X171285000Y-56247400D01*
X172885000Y-55434600D02*
X172885000Y-56247400D01*
X125895000Y-55434600D02*
X125895000Y-56247400D01*
X124295000Y-55434600D02*
X124295000Y-56247400D01*
X147485000Y-55434600D02*
X147485000Y-56247400D01*
X145885000Y-55434600D02*
X145885000Y-56247400D01*
X151295000Y-55434600D02*
X151295000Y-56247400D01*
X149695000Y-55434600D02*
X149695000Y-56247400D01*
D15*
X190462779Y-75640000D02*
X190137221Y-75640000D01*
X190462779Y-76660000D02*
X190137221Y-76660000D01*
X111447012Y-50741013D02*
X110998000Y-51190026D01*
X110998000Y-51190026D02*
X110548987Y-50741013D01*
X184950000Y-43025000D02*
X184950000Y-42575000D01*
X187150000Y-38062500D02*
X187150000Y-38425000D01*
X179350000Y-43025000D02*
X179800000Y-43025000D01*
X187150000Y-43025000D02*
X186700000Y-43025000D01*
X184950000Y-43025000D02*
X184500000Y-43025000D01*
X187150000Y-40662500D02*
X187150000Y-43025000D01*
X179350000Y-40662500D02*
X179350000Y-43025000D01*
X179350000Y-38062500D02*
X179350000Y-38425000D01*
X108912779Y-58260000D02*
X108587221Y-58260000D01*
X108912779Y-57240000D02*
X108587221Y-57240000D01*
X118389412Y-45405163D02*
X118159207Y-45174958D01*
X117668163Y-46126412D02*
X117437958Y-45896207D01*
X196830000Y-112610000D02*
X195900000Y-112610000D01*
X193670000Y-112610000D02*
X193670000Y-111150000D01*
X193670000Y-112610000D02*
X194600000Y-112610000D01*
X196830000Y-112610000D02*
X196830000Y-110450000D01*
X105185000Y-120430000D02*
X105185000Y-125950000D01*
X107255000Y-120430000D02*
X105185000Y-120430000D01*
X110716000Y-120430000D02*
X110716000Y-125950000D01*
X109900000Y-118744000D02*
X109900000Y-120430000D01*
X110716000Y-120430000D02*
X109900000Y-120430000D01*
X110716000Y-125950000D02*
X108645000Y-125950000D01*
X107255000Y-125950000D02*
X105185000Y-125950000D01*
X104519000Y-113629221D02*
X104519000Y-113954779D01*
X105539000Y-113629221D02*
X105539000Y-113954779D01*
X187069000Y-48942779D02*
X187069000Y-48617221D01*
X188089000Y-48942779D02*
X188089000Y-48617221D01*
X191212779Y-53390000D02*
X190887221Y-53390000D01*
X191212779Y-54410000D02*
X190887221Y-54410000D01*
X172112779Y-41560000D02*
X171787221Y-41560000D01*
X172112779Y-40540000D02*
X171787221Y-40540000D01*
X186743221Y-54481000D02*
X187068779Y-54481000D01*
X186743221Y-55501000D02*
X187068779Y-55501000D01*
X194112779Y-56290000D02*
X193787221Y-56290000D01*
X194112779Y-57310000D02*
X193787221Y-57310000D01*
D17*
X170350000Y-42025000D02*
X176325000Y-42025000D01*
X171875000Y-48925000D02*
X176325000Y-48925000D01*
D15*
X195612779Y-109560000D02*
X195287221Y-109560000D01*
X195612779Y-108540000D02*
X195287221Y-108540000D01*
D14*
X175050000Y-90743600D02*
X175050000Y-91556400D01*
X173450000Y-90743600D02*
X173450000Y-91556400D01*
D15*
X183796721Y-54481000D02*
X184122279Y-54481000D01*
X183796721Y-55501000D02*
X184122279Y-55501000D01*
X182753000Y-53955000D02*
X180803000Y-53955000D01*
X182753000Y-53955000D02*
X186203000Y-53955000D01*
X182753000Y-43835000D02*
X180803000Y-43835000D01*
X182753000Y-43835000D02*
X184703000Y-43835000D01*
X180863721Y-55501000D02*
X181189279Y-55501000D01*
X180863721Y-54481000D02*
X181189279Y-54481000D01*
X194350000Y-52200000D02*
X194350000Y-39600000D01*
X189250000Y-39600000D02*
X189250000Y-52200000D01*
X194350000Y-39600000D02*
X189250000Y-39600000D01*
X169830000Y-41340000D02*
X169830000Y-42800000D01*
X169830000Y-41340000D02*
X168900000Y-41340000D01*
X166670000Y-41340000D02*
X166670000Y-43500000D01*
X166670000Y-41340000D02*
X167600000Y-41340000D01*
X194112779Y-54790000D02*
X193787221Y-54790000D01*
X194112779Y-55810000D02*
X193787221Y-55810000D01*
X188960000Y-42062779D02*
X188960000Y-41737221D01*
X187940000Y-42062779D02*
X187940000Y-41737221D01*
X176462779Y-41560000D02*
X176137221Y-41560000D01*
X176462779Y-40540000D02*
X176137221Y-40540000D01*
X121340000Y-58287221D02*
X121340000Y-58612779D01*
X122360000Y-58287221D02*
X122360000Y-58612779D01*
X196710000Y-40237221D02*
X196710000Y-40562779D01*
X195690000Y-40237221D02*
X195690000Y-40562779D01*
%LPC*%
D18*
X112903000Y-70358000D03*
X112903000Y-72058000D03*
D19*
X116649500Y-73914000D03*
X114949500Y-73914000D03*
X116649500Y-76327000D03*
X114949500Y-76327000D03*
D20*
X131700000Y-89400000D03*
X130200000Y-89400000D03*
D21*
X112550000Y-79650000D03*
X114250000Y-79650000D03*
D22*
X126912500Y-115100000D03*
X126912500Y-114600000D03*
X126912500Y-114100000D03*
X126912500Y-113600000D03*
X126912500Y-113100000D03*
X126912500Y-112600000D03*
X126912500Y-112100000D03*
X126912500Y-111600000D03*
X126912500Y-111100000D03*
X126912500Y-110600000D03*
X126912500Y-110100000D03*
X126912500Y-109600000D03*
X126912500Y-109100000D03*
X126912500Y-108600000D03*
X126912500Y-108100000D03*
X126912500Y-107600000D03*
X126912500Y-107100000D03*
X126912500Y-106600000D03*
X126912500Y-106100000D03*
X126912500Y-105600000D03*
X126912500Y-105100000D03*
X126912500Y-104600000D03*
X126912500Y-104100000D03*
X126912500Y-103600000D03*
X126912500Y-103100000D03*
D23*
X125250000Y-101437500D03*
X124750000Y-101437500D03*
X124250000Y-101437500D03*
X123750000Y-101437500D03*
X123250000Y-101437500D03*
X122750000Y-101437500D03*
X122250000Y-101437500D03*
X121750000Y-101437500D03*
X121250000Y-101437500D03*
X120750000Y-101437500D03*
X120250000Y-101437500D03*
X119750000Y-101437500D03*
X119250000Y-101437500D03*
X118750000Y-101437500D03*
X118250000Y-101437500D03*
X117750000Y-101437500D03*
X117250000Y-101437500D03*
X116750000Y-101437500D03*
X116250000Y-101437500D03*
X115750000Y-101437500D03*
X115250000Y-101437500D03*
X114750000Y-101437500D03*
X114250000Y-101437500D03*
X113750000Y-101437500D03*
X113250000Y-101437500D03*
D22*
X111587500Y-103100000D03*
X111587500Y-103600000D03*
X111587500Y-104100000D03*
X111587500Y-104600000D03*
X111587500Y-105100000D03*
X111587500Y-105600000D03*
X111587500Y-106100000D03*
X111587500Y-106600000D03*
X111587500Y-107100000D03*
X111587500Y-107600000D03*
X111587500Y-108100000D03*
X111587500Y-108600000D03*
X111587500Y-109100000D03*
X111587500Y-109600000D03*
X111587500Y-110100000D03*
X111587500Y-110600000D03*
X111587500Y-111100000D03*
X111587500Y-111600000D03*
X111587500Y-112100000D03*
X111587500Y-112600000D03*
X111587500Y-113100000D03*
X111587500Y-113600000D03*
X111587500Y-114100000D03*
X111587500Y-114600000D03*
X111587500Y-115100000D03*
D23*
X113250000Y-116762500D03*
X113750000Y-116762500D03*
X114250000Y-116762500D03*
X114750000Y-116762500D03*
X115250000Y-116762500D03*
X115750000Y-116762500D03*
X116250000Y-116762500D03*
X116750000Y-116762500D03*
X117250000Y-116762500D03*
X117750000Y-116762500D03*
X118250000Y-116762500D03*
X118750000Y-116762500D03*
X119250000Y-116762500D03*
X119750000Y-116762500D03*
X120250000Y-116762500D03*
X120750000Y-116762500D03*
X121250000Y-116762500D03*
X121750000Y-116762500D03*
X122250000Y-116762500D03*
X122750000Y-116762500D03*
X123250000Y-116762500D03*
X123750000Y-116762500D03*
X124250000Y-116762500D03*
X124750000Y-116762500D03*
X125250000Y-116762500D03*
D24*
X195453000Y-45466000D03*
X195453000Y-43766000D03*
D18*
X195453000Y-50800000D03*
X195453000Y-52500000D03*
X197866000Y-50800000D03*
X197866000Y-52500000D03*
D25*
X114746268Y-67351041D03*
X116372614Y-68977386D03*
D26*
X120827386Y-64522614D03*
D25*
X117998959Y-70603732D03*
D27*
X169545000Y-54991000D03*
X168275000Y-54991000D03*
X167005000Y-54991000D03*
X165735000Y-54991000D03*
X164465000Y-54991000D03*
X163195000Y-54991000D03*
X161925000Y-54991000D03*
X160655000Y-54991000D03*
X159385000Y-54991000D03*
X158115000Y-54991000D03*
X156845000Y-54991000D03*
X155575000Y-54991000D03*
X154305000Y-54991000D03*
X153035000Y-54991000D03*
X153035000Y-61341000D03*
X154305000Y-61341000D03*
X155575000Y-61341000D03*
X156845000Y-61341000D03*
X158115000Y-61341000D03*
X159385000Y-61341000D03*
X160655000Y-61341000D03*
X161925000Y-61341000D03*
X163195000Y-61341000D03*
X164465000Y-61341000D03*
X165735000Y-61341000D03*
X167005000Y-61341000D03*
X168275000Y-61341000D03*
X169545000Y-61341000D03*
D28*
X203500000Y-135170000D03*
X203500000Y-45170000D03*
D29*
X205740000Y-129540000D03*
D30*
X205740000Y-127000000D03*
X205740000Y-124460000D03*
X205740000Y-121920000D03*
X205740000Y-119380000D03*
X205740000Y-116840000D03*
X205740000Y-114300000D03*
X205740000Y-111760000D03*
X205740000Y-109220000D03*
X205740000Y-106680000D03*
X205740000Y-104140000D03*
X205740000Y-101600000D03*
X205740000Y-99060000D03*
X205740000Y-96520000D03*
X205740000Y-93980000D03*
X205740000Y-91440000D03*
X205740000Y-88900000D03*
X205740000Y-86360000D03*
X205740000Y-83820000D03*
X205740000Y-81280000D03*
X205740000Y-78740000D03*
X205740000Y-76200000D03*
X205740000Y-73660000D03*
X205740000Y-71120000D03*
X205740000Y-68580000D03*
X205740000Y-66040000D03*
X205740000Y-63500000D03*
X205740000Y-60960000D03*
X205740000Y-58420000D03*
X205740000Y-55880000D03*
X205740000Y-53340000D03*
X205740000Y-50800000D03*
X203200000Y-129540000D03*
X203200000Y-127000000D03*
X203200000Y-124460000D03*
X203200000Y-121920000D03*
X203200000Y-119380000D03*
X203200000Y-116840000D03*
X203200000Y-114300000D03*
X203200000Y-111760000D03*
X203200000Y-109220000D03*
X203200000Y-106680000D03*
X203200000Y-104140000D03*
X203200000Y-101600000D03*
X203200000Y-99060000D03*
X203200000Y-96520000D03*
X203200000Y-93980000D03*
X203200000Y-91440000D03*
X203200000Y-88900000D03*
X203200000Y-86360000D03*
X203200000Y-83820000D03*
X203200000Y-81280000D03*
X203200000Y-78740000D03*
X203200000Y-76200000D03*
X203200000Y-73660000D03*
X203200000Y-71120000D03*
X203200000Y-68580000D03*
X203200000Y-66040000D03*
X203200000Y-63500000D03*
X203200000Y-60960000D03*
X203200000Y-58420000D03*
X203200000Y-55880000D03*
X203200000Y-53340000D03*
X203200000Y-50800000D03*
X200660000Y-129540000D03*
X200660000Y-127000000D03*
X200660000Y-124460000D03*
X200660000Y-121920000D03*
X200660000Y-119380000D03*
X200660000Y-116840000D03*
X200660000Y-114300000D03*
X200660000Y-111760000D03*
X200660000Y-109220000D03*
X200660000Y-106680000D03*
X200660000Y-104140000D03*
X200660000Y-101600000D03*
X200660000Y-99060000D03*
X200660000Y-96520000D03*
X200660000Y-93980000D03*
X200660000Y-91440000D03*
X200660000Y-88900000D03*
X200660000Y-86360000D03*
X200660000Y-83820000D03*
X200660000Y-81280000D03*
X200660000Y-78740000D03*
X200660000Y-76200000D03*
X200660000Y-73660000D03*
X200660000Y-71120000D03*
X200660000Y-68580000D03*
X200660000Y-66040000D03*
X200660000Y-63500000D03*
X200660000Y-60960000D03*
X200660000Y-58420000D03*
X200660000Y-55880000D03*
X200660000Y-53340000D03*
X200660000Y-50800000D03*
D31*
X125250000Y-99450000D03*
X126750000Y-99450000D03*
D32*
X176650000Y-95800000D03*
X176650000Y-96450000D03*
X176650000Y-97100000D03*
X176650000Y-97750000D03*
X176650000Y-98400000D03*
X176650000Y-99050000D03*
X176650000Y-99700000D03*
X176650000Y-100350000D03*
X176650000Y-101000000D03*
X176650000Y-101650000D03*
X182550000Y-101650000D03*
X182550000Y-101000000D03*
X182550000Y-100350000D03*
X182550000Y-99700000D03*
X182550000Y-99050000D03*
X182550000Y-98400000D03*
X182550000Y-97750000D03*
X182550000Y-97100000D03*
X182550000Y-96450000D03*
X182550000Y-95800000D03*
D20*
X182550000Y-94350000D03*
X181050000Y-94350000D03*
X191050000Y-57950000D03*
X189550000Y-57950000D03*
X191050000Y-94350000D03*
X189550000Y-94350000D03*
X191050000Y-85250000D03*
X189550000Y-85250000D03*
X182550000Y-112550000D03*
X181050000Y-112550000D03*
X191050000Y-112550000D03*
X189550000Y-112550000D03*
X191050000Y-67050000D03*
X189550000Y-67050000D03*
X182550000Y-67050000D03*
X181050000Y-67050000D03*
X182550000Y-76150000D03*
X181050000Y-76150000D03*
X182550000Y-103450000D03*
X181050000Y-103450000D03*
X191050000Y-103450000D03*
X189550000Y-103450000D03*
D24*
X197866000Y-99060000D03*
X197866000Y-97360000D03*
D18*
X131572000Y-98171000D03*
X131572000Y-99871000D03*
X165608000Y-103251000D03*
X165608000Y-104951000D03*
D32*
X176650000Y-68500000D03*
X176650000Y-69150000D03*
X176650000Y-69800000D03*
X176650000Y-70450000D03*
X176650000Y-71100000D03*
X176650000Y-71750000D03*
X176650000Y-72400000D03*
X176650000Y-73050000D03*
X176650000Y-73700000D03*
X176650000Y-74350000D03*
X182550000Y-74350000D03*
X182550000Y-73700000D03*
X182550000Y-73050000D03*
X182550000Y-72400000D03*
X182550000Y-71750000D03*
X182550000Y-71100000D03*
X182550000Y-70450000D03*
X182550000Y-69800000D03*
X182550000Y-69150000D03*
X182550000Y-68500000D03*
X176650000Y-77600000D03*
X176650000Y-78250000D03*
X176650000Y-78900000D03*
X176650000Y-79550000D03*
X176650000Y-80200000D03*
X176650000Y-80850000D03*
X176650000Y-81500000D03*
X176650000Y-82150000D03*
X176650000Y-82800000D03*
X176650000Y-83450000D03*
X182550000Y-83450000D03*
X182550000Y-82800000D03*
X182550000Y-82150000D03*
X182550000Y-81500000D03*
X182550000Y-80850000D03*
X182550000Y-80200000D03*
X182550000Y-79550000D03*
X182550000Y-78900000D03*
X182550000Y-78250000D03*
X182550000Y-77600000D03*
X185150000Y-59400000D03*
X185150000Y-60050000D03*
X185150000Y-60700000D03*
X185150000Y-61350000D03*
X185150000Y-62000000D03*
X185150000Y-62650000D03*
X185150000Y-63300000D03*
X185150000Y-63950000D03*
X185150000Y-64600000D03*
X185150000Y-65250000D03*
X191050000Y-65250000D03*
X191050000Y-64600000D03*
X191050000Y-63950000D03*
X191050000Y-63300000D03*
X191050000Y-62650000D03*
X191050000Y-62000000D03*
X191050000Y-61350000D03*
X191050000Y-60700000D03*
X191050000Y-60050000D03*
X191050000Y-59400000D03*
X185150000Y-68500000D03*
X185150000Y-69150000D03*
X185150000Y-69800000D03*
X185150000Y-70450000D03*
X185150000Y-71100000D03*
X185150000Y-71750000D03*
X185150000Y-72400000D03*
X185150000Y-73050000D03*
X185150000Y-73700000D03*
X185150000Y-74350000D03*
X191050000Y-74350000D03*
X191050000Y-73700000D03*
X191050000Y-73050000D03*
X191050000Y-72400000D03*
X191050000Y-71750000D03*
X191050000Y-71100000D03*
X191050000Y-70450000D03*
X191050000Y-69800000D03*
X191050000Y-69150000D03*
X191050000Y-68500000D03*
X185150000Y-86700000D03*
X185150000Y-87350000D03*
X185150000Y-88000000D03*
X185150000Y-88650000D03*
X185150000Y-89300000D03*
X185150000Y-89950000D03*
X185150000Y-90600000D03*
X185150000Y-91250000D03*
X185150000Y-91900000D03*
X185150000Y-92550000D03*
X191050000Y-92550000D03*
X191050000Y-91900000D03*
X191050000Y-91250000D03*
X191050000Y-90600000D03*
X191050000Y-89950000D03*
X191050000Y-89300000D03*
X191050000Y-88650000D03*
X191050000Y-88000000D03*
X191050000Y-87350000D03*
X191050000Y-86700000D03*
X185150000Y-77600000D03*
X185150000Y-78250000D03*
X185150000Y-78900000D03*
X185150000Y-79550000D03*
X185150000Y-80200000D03*
X185150000Y-80850000D03*
X185150000Y-81500000D03*
X185150000Y-82150000D03*
X185150000Y-82800000D03*
X185150000Y-83450000D03*
X191050000Y-83450000D03*
X191050000Y-82800000D03*
X191050000Y-82150000D03*
X191050000Y-81500000D03*
X191050000Y-80850000D03*
X191050000Y-80200000D03*
X191050000Y-79550000D03*
X191050000Y-78900000D03*
X191050000Y-78250000D03*
X191050000Y-77600000D03*
X176650000Y-104900000D03*
X176650000Y-105550000D03*
X176650000Y-106200000D03*
X176650000Y-106850000D03*
X176650000Y-107500000D03*
X176650000Y-108150000D03*
X176650000Y-108800000D03*
X176650000Y-109450000D03*
X176650000Y-110100000D03*
X176650000Y-110750000D03*
X182550000Y-110750000D03*
X182550000Y-110100000D03*
X182550000Y-109450000D03*
X182550000Y-108800000D03*
X182550000Y-108150000D03*
X182550000Y-107500000D03*
X182550000Y-106850000D03*
X182550000Y-106200000D03*
X182550000Y-105550000D03*
X182550000Y-104900000D03*
X176650000Y-114000000D03*
X176650000Y-114650000D03*
X176650000Y-115300000D03*
X176650000Y-115950000D03*
X176650000Y-116600000D03*
X176650000Y-117250000D03*
X176650000Y-117900000D03*
X176650000Y-118550000D03*
X176650000Y-119200000D03*
X176650000Y-119850000D03*
X182550000Y-119850000D03*
X182550000Y-119200000D03*
X182550000Y-118550000D03*
X182550000Y-117900000D03*
X182550000Y-117250000D03*
X182550000Y-116600000D03*
X182550000Y-115950000D03*
X182550000Y-115300000D03*
X182550000Y-114650000D03*
X182550000Y-114000000D03*
X185150000Y-95800000D03*
X185150000Y-96450000D03*
X185150000Y-97100000D03*
X185150000Y-97750000D03*
X185150000Y-98400000D03*
X185150000Y-99050000D03*
X185150000Y-99700000D03*
X185150000Y-100350000D03*
X185150000Y-101000000D03*
X185150000Y-101650000D03*
X191050000Y-101650000D03*
X191050000Y-101000000D03*
X191050000Y-100350000D03*
X191050000Y-99700000D03*
X191050000Y-99050000D03*
X191050000Y-98400000D03*
X191050000Y-97750000D03*
X191050000Y-97100000D03*
X191050000Y-96450000D03*
X191050000Y-95800000D03*
X185150000Y-104900000D03*
X185150000Y-105550000D03*
X185150000Y-106200000D03*
X185150000Y-106850000D03*
X185150000Y-107500000D03*
X185150000Y-108150000D03*
X185150000Y-108800000D03*
X185150000Y-109450000D03*
X185150000Y-110100000D03*
X185150000Y-110750000D03*
X191050000Y-110750000D03*
X191050000Y-110100000D03*
X191050000Y-109450000D03*
X191050000Y-108800000D03*
X191050000Y-108150000D03*
X191050000Y-107500000D03*
X191050000Y-106850000D03*
X191050000Y-106200000D03*
X191050000Y-105550000D03*
X191050000Y-104900000D03*
X185150000Y-114000000D03*
X185150000Y-114650000D03*
X185150000Y-115300000D03*
X185150000Y-115950000D03*
X185150000Y-116600000D03*
X185150000Y-117250000D03*
X185150000Y-117900000D03*
X185150000Y-118550000D03*
X185150000Y-119200000D03*
X185150000Y-119850000D03*
X191050000Y-119850000D03*
X191050000Y-119200000D03*
X191050000Y-118550000D03*
X191050000Y-117900000D03*
X191050000Y-117250000D03*
X191050000Y-116600000D03*
X191050000Y-115950000D03*
X191050000Y-115300000D03*
X191050000Y-114650000D03*
X191050000Y-114000000D03*
D27*
X144145000Y-54991000D03*
X142875000Y-54991000D03*
X141605000Y-54991000D03*
X140335000Y-54991000D03*
X139065000Y-54991000D03*
X137795000Y-54991000D03*
X136525000Y-54991000D03*
X135255000Y-54991000D03*
X133985000Y-54991000D03*
X132715000Y-54991000D03*
X131445000Y-54991000D03*
X130175000Y-54991000D03*
X128905000Y-54991000D03*
X127635000Y-54991000D03*
X127635000Y-61341000D03*
X128905000Y-61341000D03*
X130175000Y-61341000D03*
X131445000Y-61341000D03*
X132715000Y-61341000D03*
X133985000Y-61341000D03*
X135255000Y-61341000D03*
X136525000Y-61341000D03*
X137795000Y-61341000D03*
X139065000Y-61341000D03*
X140335000Y-61341000D03*
X141605000Y-61341000D03*
X142875000Y-61341000D03*
X144145000Y-61341000D03*
D20*
X127600000Y-89400000D03*
X126100000Y-89400000D03*
D31*
X124000000Y-118750000D03*
X125500000Y-118750000D03*
D33*
X109600000Y-106600000D03*
X109600000Y-108100000D03*
D20*
X119000000Y-118750000D03*
X117500000Y-118750000D03*
X119250000Y-99450000D03*
X117750000Y-99450000D03*
D33*
X128900000Y-113100000D03*
X128900000Y-114600000D03*
D34*
X109600000Y-103100000D03*
X109600000Y-101600000D03*
D35*
X105283000Y-44958000D03*
X210312000Y-44958000D03*
X210312000Y-135382000D03*
X111125000Y-127508000D03*
D36*
X105283000Y-42418000D03*
X210312000Y-39878000D03*
X210312000Y-137922000D03*
X196469000Y-137922000D03*
X113665000Y-127508000D03*
D37*
X129150000Y-96300000D03*
X129150000Y-97900000D03*
X127450000Y-96300000D03*
X127450000Y-97900000D03*
X106553000Y-112992000D03*
X106553000Y-114592000D03*
X108077000Y-112992000D03*
X108077000Y-114592000D03*
D38*
X130000000Y-91500000D03*
X130000000Y-93700000D03*
X131700000Y-93700000D03*
X131700000Y-91500000D03*
X125900000Y-91500000D03*
X125900000Y-93700000D03*
X127600000Y-93700000D03*
X127600000Y-91500000D03*
D39*
X129052500Y-76200000D03*
X129052500Y-77470000D03*
X129052500Y-78740000D03*
X129052500Y-80010000D03*
D40*
X130810000Y-81762500D03*
X132080000Y-81762500D03*
X133350000Y-81762500D03*
X134620000Y-81762500D03*
X135890000Y-81762500D03*
X137160000Y-81762500D03*
X138430000Y-81762500D03*
X139700000Y-81762500D03*
X140970000Y-81762500D03*
D39*
X142727500Y-80010000D03*
X142727500Y-78740000D03*
X142727500Y-77470000D03*
X142727500Y-76200000D03*
X142727500Y-74930000D03*
X142727500Y-73660000D03*
X142727500Y-72390000D03*
D40*
X140970000Y-70637500D03*
X139700000Y-70637500D03*
X138430000Y-70637500D03*
X137160000Y-70637500D03*
X135890000Y-70637500D03*
X134620000Y-70637500D03*
X133350000Y-70637500D03*
X132080000Y-70637500D03*
X130810000Y-70637500D03*
D39*
X129052500Y-72390000D03*
X129052500Y-73660000D03*
X129052500Y-74930000D03*
X154452500Y-76200000D03*
X154452500Y-77470000D03*
X154452500Y-78740000D03*
X154452500Y-80010000D03*
D40*
X156210000Y-81762500D03*
X157480000Y-81762500D03*
X158750000Y-81762500D03*
X160020000Y-81762500D03*
X161290000Y-81762500D03*
X162560000Y-81762500D03*
X163830000Y-81762500D03*
X165100000Y-81762500D03*
X166370000Y-81762500D03*
D39*
X168127500Y-80010000D03*
X168127500Y-78740000D03*
X168127500Y-77470000D03*
X168127500Y-76200000D03*
X168127500Y-74930000D03*
X168127500Y-73660000D03*
X168127500Y-72390000D03*
D40*
X166370000Y-70637500D03*
X165100000Y-70637500D03*
X163830000Y-70637500D03*
X162560000Y-70637500D03*
X161290000Y-70637500D03*
X160020000Y-70637500D03*
X158750000Y-70637500D03*
X157480000Y-70637500D03*
X156210000Y-70637500D03*
D39*
X154452500Y-72390000D03*
X154452500Y-73660000D03*
X154452500Y-74930000D03*
D41*
X148590000Y-91451000D03*
X147320000Y-91451000D03*
X146050000Y-91451000D03*
X144780000Y-91451000D03*
X143510000Y-91451000D03*
X142240000Y-91451000D03*
X140970000Y-91451000D03*
X139700000Y-91451000D03*
X138430000Y-91451000D03*
D42*
X136790000Y-93091000D03*
X136790000Y-94361000D03*
X136790000Y-95631000D03*
X136790000Y-96901000D03*
X136790000Y-98171000D03*
X136790000Y-99441000D03*
X136790000Y-100711000D03*
X136790000Y-101981000D03*
X136790000Y-103251000D03*
X136790000Y-104521000D03*
X136790000Y-105791000D03*
X136790000Y-107061000D03*
X136790000Y-108331000D03*
X136790000Y-109601000D03*
X136790000Y-110871000D03*
X136790000Y-112141000D03*
X136790000Y-113411000D03*
D41*
X138430000Y-115051000D03*
X139700000Y-115051000D03*
X140970000Y-115051000D03*
X142240000Y-115051000D03*
X143510000Y-115051000D03*
X144780000Y-115051000D03*
X146050000Y-115051000D03*
X147320000Y-115051000D03*
X148590000Y-115051000D03*
X149860000Y-115051000D03*
X151130000Y-115051000D03*
X152400000Y-115051000D03*
X153670000Y-115051000D03*
X154940000Y-115051000D03*
X156210000Y-115051000D03*
X157480000Y-115051000D03*
X158750000Y-115051000D03*
D42*
X160390000Y-113411000D03*
X160390000Y-112141000D03*
X160390000Y-110871000D03*
X160390000Y-109601000D03*
X160390000Y-108331000D03*
X160390000Y-107061000D03*
X160390000Y-105791000D03*
X160390000Y-104521000D03*
X160390000Y-103251000D03*
X160390000Y-101981000D03*
X160390000Y-100711000D03*
X160390000Y-99441000D03*
X160390000Y-98171000D03*
X160390000Y-96901000D03*
X160390000Y-95631000D03*
X160390000Y-94361000D03*
X160390000Y-93091000D03*
D41*
X158750000Y-91451000D03*
X157480000Y-91451000D03*
X156210000Y-91451000D03*
X154940000Y-91451000D03*
X153670000Y-91451000D03*
X152400000Y-91451000D03*
X151130000Y-91451000D03*
X149860000Y-91451000D03*
D43*
X117250000Y-84450000D03*
X114950000Y-84450000D03*
D44*
X114950000Y-90750000D03*
D43*
X112650000Y-84450000D03*
D18*
X111800000Y-90950000D03*
X111800000Y-92650000D03*
X118100000Y-90950000D03*
X118100000Y-92650000D03*
X123952000Y-74930000D03*
X123952000Y-76630000D03*
X149352000Y-74930000D03*
X149352000Y-76630000D03*
X172085000Y-54991000D03*
X172085000Y-56691000D03*
X125095000Y-54991000D03*
X125095000Y-56691000D03*
X146685000Y-54991000D03*
X146685000Y-56691000D03*
X150495000Y-54991000D03*
X150495000Y-56691000D03*
D20*
X191050000Y-76150000D03*
X189550000Y-76150000D03*
D45*
X111447012Y-52537064D03*
D46*
X109650961Y-50741013D03*
X114320694Y-44634439D03*
D45*
X111896025Y-44903846D03*
X107854910Y-48944962D03*
X115488128Y-48495949D03*
D46*
X115757535Y-46071280D03*
D47*
X110998000Y-50292000D03*
X111896025Y-49393974D03*
X112794051Y-48495949D03*
X113692076Y-47597923D03*
X114590102Y-46699898D03*
X113692076Y-45801872D03*
X112794051Y-46699898D03*
X111896025Y-47597923D03*
X110998000Y-48495949D03*
X110099974Y-49393974D03*
D48*
X184550000Y-42187500D03*
X183900000Y-42187500D03*
X183250000Y-42187500D03*
X182600000Y-42187500D03*
X181950000Y-42187500D03*
D49*
X179650000Y-39562500D03*
X186850000Y-39562500D03*
D50*
X182450000Y-39537500D03*
D51*
X185675000Y-42212500D03*
X180825000Y-42212500D03*
D50*
X184050000Y-39537500D03*
D52*
X109550000Y-57750000D03*
X107950000Y-57750000D03*
D53*
X118479370Y-46216370D03*
X117348000Y-45085000D03*
D54*
X196200000Y-110800000D03*
X194300000Y-110800000D03*
X195250000Y-112900000D03*
D55*
X109220000Y-119380000D03*
X107950000Y-119380000D03*
X106680000Y-119380000D03*
X106680000Y-127000000D03*
X107950000Y-127000000D03*
X109220000Y-127000000D03*
D37*
X105029000Y-112992000D03*
X105029000Y-114592000D03*
D34*
X187579000Y-49530000D03*
X187579000Y-48030000D03*
D20*
X191800000Y-53900000D03*
X190300000Y-53900000D03*
D52*
X172750000Y-41050000D03*
X171150000Y-41050000D03*
D56*
X186106000Y-54991000D03*
X187706000Y-54991000D03*
D52*
X194750000Y-56800000D03*
X193150000Y-56800000D03*
D32*
X171150000Y-42550000D03*
X171150000Y-43200000D03*
X171150000Y-43850000D03*
X171150000Y-44500000D03*
X171150000Y-45150000D03*
X171150000Y-45800000D03*
X171150000Y-46450000D03*
X171150000Y-47100000D03*
X171150000Y-47750000D03*
X171150000Y-48400000D03*
X177050000Y-48400000D03*
X177050000Y-47750000D03*
X177050000Y-47100000D03*
X177050000Y-46450000D03*
X177050000Y-45800000D03*
X177050000Y-45150000D03*
X177050000Y-44500000D03*
X177050000Y-43850000D03*
X177050000Y-43200000D03*
X177050000Y-42550000D03*
D20*
X196200000Y-109050000D03*
X194700000Y-109050000D03*
D18*
X174250000Y-90300000D03*
X174250000Y-92000000D03*
D56*
X183159500Y-54991000D03*
X184759500Y-54991000D03*
D57*
X185228000Y-53340000D03*
X185228000Y-52070000D03*
X185228000Y-50800000D03*
X185228000Y-49530000D03*
X185228000Y-48260000D03*
X185228000Y-46990000D03*
X185228000Y-45720000D03*
X185228000Y-44450000D03*
X180278000Y-44450000D03*
X180278000Y-45720000D03*
X180278000Y-46990000D03*
X180278000Y-48260000D03*
X180278000Y-49530000D03*
X180278000Y-50800000D03*
X180278000Y-52070000D03*
X180278000Y-53340000D03*
D31*
X180276500Y-54991000D03*
X181776500Y-54991000D03*
D58*
X191800000Y-42050000D03*
X191800000Y-50550000D03*
D59*
X167300000Y-43150000D03*
X169200000Y-43150000D03*
X168250000Y-41050000D03*
D52*
X194750000Y-55300000D03*
X193150000Y-55300000D03*
D34*
X188450000Y-42650000D03*
X188450000Y-41150000D03*
D20*
X177050000Y-41050000D03*
X175550000Y-41050000D03*
D33*
X121850000Y-57700000D03*
X121850000Y-59200000D03*
X196200000Y-39650000D03*
X196200000Y-41150000D03*
M02*
