G04 #@! TF.GenerationSoftware,KiCad,Pcbnew,8.0.5*
G04 #@! TF.CreationDate,2024-10-03T07:07:38-04:00*
G04 #@! TF.ProjectId,WarpSE,57617270-5345-42e6-9b69-6361645f7063,1.0*
G04 #@! TF.SameCoordinates,Original*
G04 #@! TF.FileFunction,Legend,Bot*
G04 #@! TF.FilePolarity,Positive*
%FSLAX46Y46*%
G04 Gerber Fmt 4.6, Leading zero omitted, Abs format (unit mm)*
G04 Created by KiCad (PCBNEW 8.0.5) date 2024-10-03 07:07:38*
%MOMM*%
%LPD*%
G01*
G04 APERTURE LIST*
G04 Aperture macros list*
%AMRoundRect*
0 Rectangle with rounded corners*
0 $1 Rounding radius*
0 $2 $3 $4 $5 $6 $7 $8 $9 X,Y pos of 4 corners*
0 Add a 4 corners polygon primitive as box body*
4,1,4,$2,$3,$4,$5,$6,$7,$8,$9,$2,$3,0*
0 Add four circle primitives for the rounded corners*
1,1,$1+$1,$2,$3*
1,1,$1+$1,$4,$5*
1,1,$1+$1,$6,$7*
1,1,$1+$1,$8,$9*
0 Add four rect primitives between the rounded corners*
20,1,$1+$1,$2,$3,$4,$5,0*
20,1,$1+$1,$4,$5,$6,$7,0*
20,1,$1+$1,$6,$7,$8,$9,0*
20,1,$1+$1,$8,$9,$2,$3,0*%
G04 Aperture macros list end*
%ADD10C,0.203200*%
%ADD11C,0.120000*%
%ADD12C,3.002400*%
%ADD13RoundRect,0.274580X0.576620X0.576620X-0.576620X0.576620X-0.576620X-0.576620X0.576620X-0.576620X0*%
%ADD14C,1.702400*%
%ADD15C,1.448000*%
%ADD16C,2.527300*%
%ADD17C,1.143000*%
%ADD18RoundRect,0.272412X0.653788X0.653788X-0.653788X0.653788X-0.653788X-0.653788X0.653788X-0.653788X0*%
%ADD19O,1.852400X1.852400*%
%ADD20RoundRect,0.272412X-0.653788X-0.653788X0.653788X-0.653788X0.653788X0.653788X-0.653788X0.653788X0*%
G04 APERTURE END LIST*
D10*
X113568237Y-39430649D02*
X113026371Y-39430649D01*
X113026371Y-39430649D02*
X113568237Y-40243449D01*
X113568237Y-40243449D02*
X113026371Y-40243449D01*
X112716733Y-40243449D02*
X112716733Y-39430649D01*
X112252276Y-40243449D02*
X112600618Y-39778992D01*
X112252276Y-39430649D02*
X112716733Y-39895106D01*
X111865228Y-40204745D02*
X111865228Y-40243449D01*
X111865228Y-40243449D02*
X111903933Y-40320859D01*
X111903933Y-40320859D02*
X111942637Y-40359564D01*
X110471856Y-39469354D02*
X110549266Y-39430649D01*
X110549266Y-39430649D02*
X110665380Y-39430649D01*
X110665380Y-39430649D02*
X110781494Y-39469354D01*
X110781494Y-39469354D02*
X110858904Y-39546764D01*
X110858904Y-39546764D02*
X110897609Y-39624173D01*
X110897609Y-39624173D02*
X110936313Y-39778992D01*
X110936313Y-39778992D02*
X110936313Y-39895106D01*
X110936313Y-39895106D02*
X110897609Y-40049925D01*
X110897609Y-40049925D02*
X110858904Y-40127335D01*
X110858904Y-40127335D02*
X110781494Y-40204745D01*
X110781494Y-40204745D02*
X110665380Y-40243449D01*
X110665380Y-40243449D02*
X110587971Y-40243449D01*
X110587971Y-40243449D02*
X110471856Y-40204745D01*
X110471856Y-40204745D02*
X110433152Y-40166040D01*
X110433152Y-40166040D02*
X110433152Y-39895106D01*
X110433152Y-39895106D02*
X110587971Y-39895106D01*
X109813875Y-39817697D02*
X110084809Y-39817697D01*
X110084809Y-40243449D02*
X110084809Y-39430649D01*
X110084809Y-39430649D02*
X109697761Y-39430649D01*
D11*
X209050000Y-129540000D02*
X209730000Y-129840000D01*
X209730000Y-129240000D02*
X209050000Y-129540000D01*
X209730000Y-129840000D02*
X209730000Y-129240000D01*
%LPC*%
D12*
X203500000Y-135170000D03*
X203500000Y-45170000D03*
D13*
X205740000Y-129540000D03*
D14*
X205740000Y-127000000D03*
X205740000Y-124460000D03*
X205740000Y-121920000D03*
X205740000Y-119380000D03*
X205740000Y-116840000D03*
X205740000Y-114300000D03*
X205740000Y-111760000D03*
X205740000Y-109220000D03*
X205740000Y-106680000D03*
X205740000Y-104140000D03*
X205740000Y-101600000D03*
X205740000Y-99060000D03*
X205740000Y-96520000D03*
X205740000Y-93980000D03*
X205740000Y-91440000D03*
X205740000Y-88900000D03*
X205740000Y-86360000D03*
X205740000Y-83820000D03*
X205740000Y-81280000D03*
X205740000Y-78740000D03*
X205740000Y-76200000D03*
X205740000Y-73660000D03*
X205740000Y-71120000D03*
X205740000Y-68580000D03*
X205740000Y-66040000D03*
X205740000Y-63500000D03*
X205740000Y-60960000D03*
X205740000Y-58420000D03*
X205740000Y-55880000D03*
X205740000Y-53340000D03*
X205740000Y-50800000D03*
X203200000Y-129540000D03*
X203200000Y-127000000D03*
X203200000Y-124460000D03*
X203200000Y-121920000D03*
X203200000Y-119380000D03*
X203200000Y-116840000D03*
X203200000Y-114300000D03*
X203200000Y-111760000D03*
X203200000Y-109220000D03*
X203200000Y-106680000D03*
X203200000Y-104140000D03*
X203200000Y-101600000D03*
X203200000Y-99060000D03*
X203200000Y-96520000D03*
X203200000Y-93980000D03*
X203200000Y-91440000D03*
X203200000Y-88900000D03*
X203200000Y-86360000D03*
X203200000Y-83820000D03*
X203200000Y-81280000D03*
X203200000Y-78740000D03*
X203200000Y-76200000D03*
X203200000Y-73660000D03*
X203200000Y-71120000D03*
X203200000Y-68580000D03*
X203200000Y-66040000D03*
X203200000Y-63500000D03*
X203200000Y-60960000D03*
X203200000Y-58420000D03*
X203200000Y-55880000D03*
X203200000Y-53340000D03*
X203200000Y-50800000D03*
X200660000Y-129540000D03*
X200660000Y-127000000D03*
X200660000Y-124460000D03*
X200660000Y-121920000D03*
X200660000Y-119380000D03*
X200660000Y-116840000D03*
X200660000Y-114300000D03*
X200660000Y-111760000D03*
X200660000Y-109220000D03*
X200660000Y-106680000D03*
X200660000Y-104140000D03*
X200660000Y-101600000D03*
X200660000Y-99060000D03*
X200660000Y-96520000D03*
X200660000Y-93980000D03*
X200660000Y-91440000D03*
X200660000Y-88900000D03*
X200660000Y-86360000D03*
X200660000Y-83820000D03*
X200660000Y-81280000D03*
X200660000Y-78740000D03*
X200660000Y-76200000D03*
X200660000Y-73660000D03*
X200660000Y-71120000D03*
X200660000Y-68580000D03*
X200660000Y-66040000D03*
X200660000Y-63500000D03*
X200660000Y-60960000D03*
X200660000Y-58420000D03*
X200660000Y-55880000D03*
X200660000Y-53340000D03*
X200660000Y-50800000D03*
D15*
X107823000Y-39878000D03*
X210312000Y-39878000D03*
X210312000Y-137922000D03*
X196469000Y-137922000D03*
X107823000Y-127508000D03*
D16*
X107854910Y-48944962D03*
D17*
X109650961Y-50741013D03*
D16*
X111447012Y-52537064D03*
X111896025Y-44903846D03*
X115488128Y-48495949D03*
D17*
X114320694Y-44634439D03*
X115757535Y-46071280D03*
D18*
X133750000Y-89550000D03*
D19*
X133750000Y-87010000D03*
D20*
X174498000Y-90805000D03*
D19*
X174498000Y-93345000D03*
D20*
X105283000Y-112268000D03*
D19*
X107823000Y-112268000D03*
X105283000Y-114808000D03*
X107823000Y-114808000D03*
X105283000Y-117348000D03*
X107823000Y-117348000D03*
X105283000Y-119888000D03*
X107823000Y-119888000D03*
X105283000Y-122428000D03*
X107823000Y-122428000D03*
X105283000Y-124968000D03*
X107823000Y-124968000D03*
D20*
X170116500Y-90805000D03*
D19*
X170116500Y-93345000D03*
%LPD*%
M02*
